<svg width="29" height="29" viewBox="0 0 29 29" fill="none" xmlns="http://www.w3.org/2000/svg">
<rect width="29" height="29" rx="10" fill="#1B1B1E"/>
<path d="M24 16.7352C24.2761 16.7352 24.5 16.5113 24.5 16.2352V12.8082C24.5 12.5321 24.2761 12.3082 24 12.3082H16.7812V5C16.7812 4.72386 16.5574 4.5 16.2812 4.5H12.7187C12.4426 4.5 12.2187 4.72386 12.2187 5V12.3082H5C4.72386 12.3082 4.5 12.5321 4.5 12.8082V16.2352C4.5 16.5113 4.72386 16.7352 5 16.7352H12.2187V24C12.2187 24.2761 12.4426 24.5 12.7187 24.5H16.2812C16.5574 24.5 16.7812 24.2761 16.7812 24V16.7352H24Z" fill="#F56920" stroke="#F56920" stroke-linejoin="round"/>
</svg>
