<svg width="298" height="70" viewBox="0 0 298 70" fill="none" xmlns="http://www.w3.org/2000/svg">
<path d="M39.8115 44.9646H43.2521V63.3608C41.0988 65.4204 38.4775 66.9885 35.388 68.0651C32.3454 69.1418 29.1156 69.6801 25.6985 69.6801C20.8303 69.6801 16.4302 68.6035 12.4982 66.4502C8.61296 64.297 5.54693 61.3246 3.30007 57.533C1.10002 53.7414 0 49.4817 0 44.754C0 40.0262 1.10002 35.7665 3.30007 31.975C5.54693 28.1834 8.61296 25.211 12.4982 23.0577C16.4302 20.9045 20.8537 19.8279 25.7687 19.8279C29.373 19.8279 32.6731 20.413 35.6689 21.5832C38.7115 22.7067 41.3095 24.3684 43.4627 26.5685L41.2158 28.9557C39.1562 26.8961 36.8391 25.4216 34.2646 24.5322C31.7369 23.5961 28.9283 23.128 25.8389 23.128C21.626 23.128 17.811 24.0641 14.3939 25.9365C11.0237 27.8089 8.37892 30.4068 6.45972 33.7303C4.54053 37.007 3.58093 40.6815 3.58093 44.754C3.58093 48.7796 4.54053 52.4542 6.45972 55.7776C8.42572 59.0543 11.0939 61.6522 14.4642 63.5714C17.8344 65.4438 21.626 66.38 25.8389 66.38C31.456 66.38 36.1136 64.8821 39.8115 61.8863V44.9646ZM90.9583 51.8456H59.4321C59.5257 54.701 60.2512 57.2521 61.6087 59.499C62.9662 61.699 64.7918 63.4076 67.0854 64.6246C69.4259 65.8417 72.0473 66.4502 74.9494 66.4502C77.3367 66.4502 79.5368 66.0289 81.5496 65.1864C83.6092 64.297 85.3178 63.0097 86.6753 61.3246L88.7115 63.6416C87.1199 65.5608 85.1071 67.0353 82.673 68.0651C80.2857 69.095 77.6878 69.6099 74.8792 69.6099C71.2281 69.6099 67.9748 68.8141 65.1194 67.2226C62.2641 65.6311 60.0172 63.431 58.3789 60.6224C56.7873 57.8139 55.9916 54.6074 55.9916 51.0031C55.9916 47.4455 56.7405 44.2625 58.2384 41.4539C59.7831 38.5985 61.8896 36.3751 64.5577 34.7835C67.2259 33.192 70.2217 32.3963 73.5452 32.3963C76.8686 32.3963 79.8411 33.192 82.4624 34.7835C85.1305 36.3283 87.2136 38.5049 88.7115 41.3135C90.2562 44.122 91.0285 47.3051 91.0285 50.8626L90.9583 51.8456ZM73.5452 35.4857C70.9706 35.4857 68.6536 36.0708 66.5939 37.241C64.5343 38.3645 62.8726 39.9794 61.6087 42.0858C60.3917 44.1455 59.6895 46.4859 59.5023 49.1073H87.588C87.4476 46.4859 86.7455 44.1455 85.4816 42.0858C84.2177 40.0262 82.556 38.4113 80.4964 37.241C78.4368 36.0708 76.1197 35.4857 73.5452 35.4857ZM118.319 69.6099C114.855 69.6099 111.719 68.8141 108.911 67.2226C106.149 65.6311 103.972 63.431 102.381 60.6224C100.789 57.767 99.9934 54.5606 99.9934 51.0031C99.9934 47.4455 100.789 44.2625 102.381 41.4539C103.972 38.5985 106.149 36.3751 108.911 34.7835C111.719 33.192 114.855 32.3963 118.319 32.3963C121.783 32.3963 124.896 33.192 127.658 34.7835C130.466 36.3751 132.667 38.5985 134.258 41.4539C135.85 44.2625 136.645 47.4455 136.645 51.0031C136.645 54.5606 135.85 57.767 134.258 60.6224C132.667 63.431 130.466 65.6311 127.658 67.2226C124.896 68.8141 121.783 69.6099 118.319 69.6099ZM118.319 66.4502C121.128 66.4502 123.632 65.7949 125.832 64.4842C128.079 63.1735 129.835 61.348 131.098 59.0075C132.409 56.667 133.064 53.9989 133.064 51.0031C133.064 48.0072 132.409 45.3391 131.098 42.9986C129.835 40.6581 128.079 38.8326 125.832 37.5219C123.632 36.2112 121.128 35.5559 118.319 35.5559C115.511 35.5559 112.983 36.2112 110.736 37.5219C108.536 38.8326 106.781 40.6581 105.47 42.9986C104.206 45.3391 103.574 48.0072 103.574 51.0031C103.574 53.9989 104.206 56.667 105.47 59.0075C106.781 61.348 108.536 63.1735 110.736 64.4842C112.983 65.7949 115.511 66.4502 118.319 66.4502ZM297.017 62.0267C297.298 62.4012 297.532 62.8693 297.719 63.431C297.906 63.9459 298 64.4374 298 64.9055C298 66.1694 297.509 67.2226 296.526 68.0651C295.589 68.9077 294.489 69.329 293.225 69.329C292.617 69.329 292.032 69.1886 291.47 68.9077C290.908 68.6269 290.44 68.229 290.066 67.7141L274.829 47.6328L268.159 54.0223V65.0459C268.159 66.3098 267.738 67.3396 266.895 68.1354C266.099 68.9311 265.046 69.329 263.735 69.329C262.472 69.329 261.418 68.9311 260.576 68.1354C259.78 67.2928 259.382 66.263 259.382 65.0459V24.462C259.382 23.245 259.803 22.2386 260.646 21.4428C261.489 20.6002 262.565 20.179 263.876 20.179C265.14 20.179 266.17 20.5768 266.965 21.3726C267.761 22.1684 268.159 23.1982 268.159 24.462V43.5603L290.628 21.4428C291.704 20.3662 292.851 19.8279 294.068 19.8279C295.145 19.8279 296.057 20.2726 296.806 21.162C297.555 22.0513 297.93 22.9875 297.93 23.9705C297.93 24.9535 297.509 25.8663 296.666 26.7089L281.359 41.3135L297.017 62.0267Z" fill="#2F4858"/>
<path d="M168.39 20.1792C174.569 20.1792 179.414 21.6537 182.925 24.6027C186.435 27.5049 188.191 31.5539 188.191 36.7498C188.191 41.8988 186.435 45.9479 182.925 48.8969C179.414 51.7991 174.569 53.2502 168.39 53.2502H154.347V69.3292H150.766V20.1792H168.39ZM168.39 50.0203C173.633 50.0203 177.635 48.8735 180.397 46.5798C183.159 44.2861 184.539 41.0094 184.539 36.7498C184.539 32.4901 183.159 29.2134 180.397 26.9198C177.635 24.5793 173.633 23.409 168.39 23.409H154.347V50.0203H168.39ZM200.09 32.6773H203.601V69.3292H200.09V32.6773ZM201.846 23.7601C201.05 23.7601 200.371 23.5027 199.81 22.9878C199.248 22.426 198.967 21.7473 198.967 20.9515C198.967 20.1558 199.248 19.477 199.81 18.9153C200.371 18.3536 201.05 18.0728 201.846 18.0728C202.642 18.0728 203.32 18.3536 203.882 18.9153C204.444 19.4302 204.725 20.0856 204.725 20.8813C204.725 21.6771 204.444 22.3558 203.882 22.9175C203.32 23.4793 202.642 23.7601 201.846 23.7601ZM235.04 69.6101C231.482 69.6101 228.299 68.8143 225.491 67.2228C222.682 65.6313 220.482 63.4312 218.89 60.6227C217.299 57.7673 216.503 54.5608 216.503 51.0033C216.503 47.399 217.299 44.1925 218.89 41.3839C220.482 38.5285 222.682 36.3285 225.491 34.7838C228.299 33.1922 231.482 32.3965 235.04 32.3965C237.989 32.3965 240.657 32.9816 243.044 34.1518C245.478 35.2753 247.444 36.937 248.942 39.1371L246.344 41.0329C245.034 39.2073 243.395 37.8498 241.429 36.9604C239.51 36.0242 237.38 35.5561 235.04 35.5561C232.184 35.5561 229.61 36.2115 227.316 37.5221C225.069 38.786 223.29 40.5882 221.98 42.9286C220.716 45.2691 220.084 47.9607 220.084 51.0033C220.084 54.0459 220.716 56.7375 221.98 59.0779C223.29 61.4184 225.069 63.244 227.316 64.5547C229.61 65.8185 232.184 66.4505 235.04 66.4505C237.38 66.4505 239.51 66.0058 241.429 65.1164C243.395 64.1802 245.034 62.7993 246.344 60.9737L248.942 62.8695C247.444 65.0696 245.478 66.7547 243.044 67.925C240.657 69.0484 237.989 69.6101 235.04 69.6101Z" fill="#F56920"/>
<path d="M216.875 14.8009C214.601 20.215 200.052 28.9137 200.052 28.9137C200.052 28.9137 195.336 12.0374 197.611 6.62326C198.139 5.32371 198.917 4.14123 199.899 3.14457C200.879 2.14789 202.045 1.35678 203.326 0.817004C204.609 0.277231 205.983 -0.000467505 207.368 5.9079e-07C208.753 0.000468687 210.122 0.279088 211.396 0.819724C212.67 1.36036 213.825 2.15226 214.792 3.14958C215.758 4.14692 216.518 5.32986 217.028 6.62985C217.537 7.92998 217.787 9.32125 217.761 10.7232C217.736 12.1253 217.435 13.5101 216.877 14.7977L216.875 14.8009Z" fill="url(#paint0_linear)"/>
<path d="M216.193 14.7108C214.06 19.7892 200.412 27.9502 200.412 27.9502C200.412 27.9502 195.989 12.1199 198.122 7.04135C199.143 4.60874 201.075 2.67979 203.492 1.67891C205.908 0.678022 208.613 0.687195 211.009 1.7044C213.405 2.72161 215.298 4.66352 216.269 7.10293C217.24 9.54244 217.213 12.2795 216.192 14.7121L216.193 14.7108Z" fill="#F56920"/>
<path d="M211.983 12.0567C213.051 9.51738 211.892 6.60026 209.397 5.54105C206.901 4.48181 204.014 5.68163 202.947 8.2209C201.881 10.7602 203.039 13.6774 205.535 14.7366C208.03 15.7959 210.917 14.5961 211.983 12.0567Z" fill="white"/>
<defs>
<linearGradient id="paint0_linear" x1="9498.2" y1="11753.7" x2="11333.9" y2="7428.99" gradientUnits="userSpaceOnUse">
<stop stop-color="#808080" stop-opacity="0.25"/>
<stop offset="0.54" stop-color="#808080" stop-opacity="0.12"/>
<stop offset="1" stop-color="#808080" stop-opacity="0.1"/>
</linearGradient>
</defs>
</svg>
