<svg width="30" height="30" viewBox="0 0 30 30" fill="none" xmlns="http://www.w3.org/2000/svg">
<path d="M15 0C6.71625 0 0 6.71625 0 15C0 23.2837 6.71625 30 15 30C23.2837 30 30 23.2837 30 15C30 6.71625 23.2837 0 15 0ZM20.8923 21.7252C20.5032 22.1143 19.8727 22.1159 19.4817 21.7287L15.7207 18.0049C15.3282 17.6163 14.695 17.6195 14.3064 18.012L10.5708 21.7857C10.1809 22.1796 9.54497 22.1812 9.15305 21.7893L8.27508 20.9113C7.88633 20.5226 7.88431 19.8929 8.27056 19.5017L12.0008 15.7233C12.3885 15.3306 12.3848 14.6981 11.9926 14.3099L8.21447 10.5708C7.82048 10.1809 7.81883 9.54492 8.21079 9.15296L9.08867 8.27508C9.47742 7.88633 10.1071 7.88431 10.4983 8.27056L14.2733 11.9974C14.6663 12.3854 15.2996 12.3813 15.6876 11.9882L19.4104 8.21638C19.8002 7.82149 20.4369 7.81941 20.8292 8.21174L21.7252 9.10765C22.1143 9.4968 22.1159 10.1273 21.7287 10.5183L18.0083 14.2759C17.6194 14.6687 17.623 15.3027 18.0164 15.6911L21.7838 19.4104C22.1786 19.8002 22.1806 20.4369 21.7883 20.8292L20.8923 21.7252Z" fill="#EB5757"/>
</svg>
