<svg width="318" height="214" viewBox="0 0 318 214" fill="none" xmlns="http://www.w3.org/2000/svg">
<path d="M0 20C0 8.9543 8.95431 0 20 0H298C309.046 0 318 8.95431 318 20V194C318 205.046 309.046 214 298 214H20C8.95431 214 0 205.046 0 194V20Z" fill="#FAFAFA"/>
<path d="M132.391 35.288H126.631V33.2H140.527V35.288H134.767V50H132.391V35.288ZM155.333 47.912V50H143.141V33.2H154.997V35.288H145.541V40.448H153.965V42.488H145.541V47.912H155.333ZM169.592 50L164.552 43.064L159.584 50H156.824L163.136 41.384L157.208 33.2H159.944L164.648 39.656L169.304 33.2H171.92L165.992 41.312L172.352 50H169.592ZM177.79 35.288H172.03V33.2H185.926V35.288H180.166V50H177.79V35.288ZM135.614 62.288H129.854V60.2H143.75V62.288H137.99V77H135.614V62.288ZM158.556 74.912V77H146.364V60.2H158.22V62.288H148.764V67.448H157.188V69.488H148.764V74.912H158.556ZM172.814 77L167.774 70.064L162.806 77H160.046L166.358 68.384L160.43 60.2H163.166L167.87 66.656L172.526 60.2H175.142L169.214 68.312L175.574 77H172.814ZM181.012 62.288H175.252V60.2H189.148V62.288H183.388V77H181.012V62.288ZM135.614 89.288H129.854V87.2H143.75V89.288H137.99V104H135.614V89.288ZM158.556 101.912V104H146.364V87.2H158.22V89.288H148.764V94.448H157.188V96.488H148.764V101.912H158.556ZM172.814 104L167.774 97.064L162.806 104H160.046L166.358 95.384L160.43 87.2H163.166L167.87 93.656L172.526 87.2H175.142L169.214 95.312L175.574 104H172.814ZM181.012 89.288H175.252V87.2H189.148V89.288H183.388V104H181.012V89.288Z" fill="#1B1B1E"/>
<rect x="48" y="136" width="223" height="49" rx="18" fill="#F56920"/>
<path d="M128.739 164.913H122.413L121.326 168H118.739L124.152 152.87H127.022L132.435 168H129.826L128.739 164.913ZM128.043 162.891L125.587 155.87L123.109 162.891H128.043ZM133.962 160.413C133.962 158.935 134.303 157.609 134.984 156.435C135.68 155.261 136.614 154.348 137.788 153.696C138.977 153.029 140.274 152.696 141.68 152.696C143.288 152.696 144.716 153.094 145.962 153.891C147.223 154.674 148.136 155.79 148.701 157.239H145.723C145.332 156.442 144.788 155.848 144.093 155.457C143.397 155.065 142.593 154.87 141.68 154.87C140.68 154.87 139.788 155.094 139.006 155.543C138.223 155.993 137.607 156.638 137.158 157.478C136.723 158.319 136.506 159.297 136.506 160.413C136.506 161.529 136.723 162.507 137.158 163.348C137.607 164.188 138.223 164.841 139.006 165.304C139.788 165.754 140.68 165.978 141.68 165.978C142.593 165.978 143.397 165.783 144.093 165.391C144.788 165 145.332 164.406 145.723 163.609H148.701C148.136 165.058 147.223 166.174 145.962 166.957C144.716 167.739 143.288 168.13 141.68 168.13C140.259 168.13 138.962 167.804 137.788 167.152C136.614 166.486 135.68 165.565 134.984 164.391C134.303 163.217 133.962 161.891 133.962 160.413ZM161.363 152.891V154.913H157.341V168H154.863V154.913H150.82V152.891H161.363ZM166.351 152.891V168H163.873V152.891H166.351ZM176.496 168.152C175.09 168.152 173.793 167.826 172.605 167.174C171.431 166.507 170.496 165.587 169.801 164.413C169.119 163.225 168.779 161.891 168.779 160.413C168.779 158.935 169.119 157.609 169.801 156.435C170.496 155.261 171.431 154.348 172.605 153.696C173.793 153.029 175.09 152.696 176.496 152.696C177.917 152.696 179.214 153.029 180.388 153.696C181.576 154.348 182.511 155.261 183.192 156.435C183.873 157.609 184.214 158.935 184.214 160.413C184.214 161.891 183.873 163.225 183.192 164.413C182.511 165.587 181.576 166.507 180.388 167.174C179.214 167.826 177.917 168.152 176.496 168.152ZM176.496 166C177.496 166 178.388 165.775 179.17 165.326C179.953 164.862 180.561 164.21 180.996 163.37C181.446 162.514 181.67 161.529 181.67 160.413C181.67 159.297 181.446 158.319 180.996 157.478C180.561 156.638 179.953 155.993 179.17 155.543C178.388 155.094 177.496 154.87 176.496 154.87C175.496 154.87 174.605 155.094 173.822 155.543C173.04 155.993 172.424 156.638 171.975 157.478C171.54 158.319 171.322 159.297 171.322 160.413C171.322 161.529 171.54 162.514 171.975 163.37C172.424 164.21 173.04 164.862 173.822 165.326C174.605 165.775 175.496 166 176.496 166ZM199.065 168H196.587L189.131 156.717V168H186.652V152.87H189.131L196.587 164.13V152.87H199.065V168Z" fill="#FAFAFA"/>
<path d="M20 1H298V-1H20V1ZM317 20V194H319V20H317ZM298 213H20V215H298V213ZM1 194V20H-1V194H1ZM20 213C9.50659 213 1 204.493 1 194H-1C-1 205.598 8.40202 215 20 215V213ZM317 194C317 204.493 308.493 213 298 213V215C309.598 215 319 205.598 319 194H317ZM298 1C308.493 1 317 9.50659 317 20H319C319 8.40202 309.598 -1 298 -1V1ZM20 -1C8.40202 -1 -1 8.40202 -1 20H1C1 9.50659 9.50659 1 20 1V-1Z" fill="#F56920"/>
</svg>
