<svg width="225" height="34" viewBox="0 0 225 34" fill="none" xmlns="http://www.w3.org/2000/svg">
<rect width="225" height="34" rx="12.4898" fill="#F56920"/>
<path d="M74.6668 13.6318V16.4629H77.9974V17.7535H74.6668V20.7094H78.4137V22H73.0848V12.3412H78.4137V13.6318H74.6668ZM79.835 18.142C79.835 17.3741 79.9923 16.6941 80.3068 16.102C80.6306 15.5099 81.0655 15.052 81.6113 14.7282C82.1664 14.3951 82.7817 14.2286 83.457 14.2286C83.9566 14.2286 84.447 14.3396 84.9281 14.5616C85.4184 14.7744 85.807 15.0612 86.0938 15.422V11.7306H87.6897V22H86.0938V20.8482C85.8347 21.2182 85.4739 21.5235 85.0113 21.7641C84.558 22.0046 84.0353 22.1249 83.4432 22.1249C82.777 22.1249 82.1664 21.9584 81.6113 21.6253C81.0655 21.283 80.6306 20.8112 80.3068 20.2098C79.9923 19.5992 79.835 18.9099 79.835 18.142ZM86.0938 18.1698C86.0938 17.6424 85.9828 17.1845 85.7607 16.7959C85.5479 16.4073 85.2657 16.1113 84.9142 15.9078C84.5626 15.7042 84.1833 15.6024 83.7762 15.6024C83.3691 15.6024 82.9898 15.7042 82.6383 15.9078C82.2867 16.102 81.9999 16.3935 81.7779 16.782C81.5651 17.1614 81.4587 17.6147 81.4587 18.142C81.4587 18.6694 81.5651 19.132 81.7779 19.5298C81.9999 19.9276 82.2867 20.2329 82.6383 20.4457C82.9991 20.6493 83.3784 20.751 83.7762 20.751C84.1833 20.751 84.5626 20.6493 84.9142 20.4457C85.2657 20.2422 85.5479 19.9461 85.7607 19.5576C85.9828 19.1597 86.0938 18.6971 86.0938 18.1698ZM90.5725 13.3404C90.2857 13.3404 90.0452 13.2433 89.8509 13.049C89.6566 12.8547 89.5595 12.6141 89.5595 12.3273C89.5595 12.0405 89.6566 11.8 89.8509 11.6057C90.0452 11.4114 90.2857 11.3143 90.5725 11.3143C90.8501 11.3143 91.086 11.4114 91.2803 11.6057C91.4746 11.8 91.5717 12.0405 91.5717 12.3273C91.5717 12.6141 91.4746 12.8547 91.2803 13.049C91.086 13.2433 90.8501 13.3404 90.5725 13.3404ZM91.3497 14.3535V22H89.7676V14.3535H91.3497ZM95.2725 15.6441V19.8767C95.2725 20.1635 95.3372 20.3717 95.4668 20.5012C95.6055 20.6215 95.8368 20.6816 96.1606 20.6816H97.1321V22H95.8831C95.1707 22 94.6249 21.8335 94.2455 21.5004C93.8662 21.1673 93.6766 20.6261 93.6766 19.8767V15.6441H92.7745V14.3535H93.6766V12.4522H95.2725V14.3535H97.1321V15.6441H95.2725ZM108.94 15.2278C108.94 15.7181 108.824 16.1807 108.593 16.6155C108.361 17.0503 107.991 17.4065 107.482 17.6841C106.974 17.9524 106.321 18.0865 105.526 18.0865H103.777V22H102.195V12.3551H105.526C106.266 12.3551 106.89 12.4846 107.399 12.7437C107.917 12.9935 108.301 13.3358 108.551 13.7706C108.81 14.2054 108.94 14.6912 108.94 15.2278ZM105.526 16.7959C106.127 16.7959 106.576 16.6618 106.872 16.3935C107.168 16.1159 107.316 15.7273 107.316 15.2278C107.316 14.1731 106.719 13.6457 105.526 13.6457H103.777V16.7959H105.526ZM112.03 15.4637C112.262 15.0751 112.567 14.7744 112.946 14.5616C113.335 14.3396 113.793 14.2286 114.32 14.2286V15.8661H113.918C113.298 15.8661 112.826 16.0234 112.502 16.338C112.188 16.6525 112.03 17.1984 112.03 17.9755V22H110.448V14.3535H112.03V15.4637ZM119.091 22.1249C118.37 22.1249 117.717 21.963 117.134 21.6392C116.552 21.3061 116.094 20.8435 115.761 20.2514C115.428 19.6501 115.261 18.9562 115.261 18.1698C115.261 17.3927 115.432 16.7034 115.774 16.102C116.117 15.5007 116.584 15.0381 117.176 14.7143C117.768 14.3905 118.43 14.2286 119.161 14.2286C119.892 14.2286 120.553 14.3905 121.145 14.7143C121.737 15.0381 122.204 15.5007 122.547 16.102C122.889 16.7034 123.06 17.3927 123.06 18.1698C123.06 18.9469 122.884 19.6362 122.533 20.2376C122.181 20.8389 121.7 21.3061 121.09 21.6392C120.488 21.963 119.822 22.1249 119.091 22.1249ZM119.091 20.751C119.498 20.751 119.878 20.6539 120.229 20.4596C120.59 20.2653 120.881 19.9739 121.103 19.5853C121.326 19.1967 121.437 18.7249 121.437 18.1698C121.437 17.6147 121.33 17.1475 121.117 16.7682C120.905 16.3796 120.622 16.0882 120.271 15.8939C119.919 15.6996 119.54 15.6024 119.133 15.6024C118.726 15.6024 118.346 15.6996 117.995 15.8939C117.653 16.0882 117.38 16.3796 117.176 16.7682C116.973 17.1475 116.871 17.6147 116.871 18.1698C116.871 18.9932 117.079 19.6316 117.495 20.0849C117.921 20.529 118.453 20.751 119.091 20.751ZM127.83 15.6441H126.414V22H124.818V15.6441H123.916V14.3535H124.818V13.8122C124.818 12.9333 125.05 12.295 125.512 11.8971C125.984 11.4901 126.72 11.2865 127.719 11.2865V12.6049C127.238 12.6049 126.9 12.6974 126.706 12.8824C126.511 13.0582 126.414 13.3682 126.414 13.8122V14.3535H127.83V15.6441ZM130.037 13.3404C129.75 13.3404 129.509 13.2433 129.315 13.049C129.121 12.8547 129.024 12.6141 129.024 12.3273C129.024 12.0405 129.121 11.8 129.315 11.6057C129.509 11.4114 129.75 11.3143 130.037 11.3143C130.314 11.3143 130.55 11.4114 130.745 11.6057C130.939 11.8 131.036 12.0405 131.036 12.3273C131.036 12.6141 130.939 12.8547 130.745 13.049C130.55 13.2433 130.314 13.3404 130.037 13.3404ZM130.814 14.3535V22H129.232V14.3535H130.814ZM134.473 11.7306V22H132.891V11.7306H134.473ZM143.558 17.9894C143.558 18.2762 143.54 18.5352 143.503 18.7665H137.66C137.707 19.3771 137.933 19.8675 138.34 20.2376C138.747 20.6076 139.247 20.7927 139.839 20.7927C140.69 20.7927 141.292 20.4365 141.643 19.7241H143.35C143.119 20.4272 142.698 21.0054 142.087 21.4588C141.486 21.9029 140.737 22.1249 139.839 22.1249C139.108 22.1249 138.451 21.963 137.869 21.6392C137.295 21.3061 136.842 20.8435 136.509 20.2514C136.185 19.6501 136.023 18.9562 136.023 18.1698C136.023 17.3834 136.18 16.6941 136.495 16.102C136.818 15.5007 137.267 15.0381 137.841 14.7143C138.424 14.3905 139.09 14.2286 139.839 14.2286C140.561 14.2286 141.204 14.3859 141.768 14.7004C142.332 15.015 142.772 15.459 143.086 16.0327C143.401 16.597 143.558 17.2493 143.558 17.9894ZM141.907 17.4898C141.898 16.9069 141.689 16.4397 141.282 16.0882C140.875 15.7366 140.371 15.5608 139.77 15.5608C139.224 15.5608 138.757 15.7366 138.368 16.0882C137.98 16.4305 137.748 16.8977 137.674 17.4898H141.907Z" fill="#FAFAFA"/>
</svg>
