<svg width="49" height="71" viewBox="0 0 49 71" fill="none" xmlns="http://www.w3.org/2000/svg">
<path d="M48.7245 28.5831C46.8586 42.2289 19.1801 70.7669 19.1801 70.7669C19.1801 70.7669 -1.74813 35.3969 0.117741 21.751C0.526551 18.4857 1.57007 15.3351 3.18786 12.4815C4.80564 9.62803 6.96556 7.12834 9.54253 5.12722C12.1195 3.12609 15.0623 1.6633 18.2006 0.823531C21.3389 -0.0162338 24.6103 -0.216282 27.8253 0.234972C31.0404 0.686226 34.1352 1.77981 36.9306 3.45241C39.726 5.12501 42.1665 7.34339 44.1106 9.97909C46.0548 12.6148 47.4641 15.6154 48.2568 18.8073C49.0496 21.9991 49.21 25.3188 48.729 28.574L48.7245 28.5831Z" fill="url(#paint0_linear)"/>
<path d="M47.1258 28.7928C45.3765 41.5927 19.4114 68.3658 19.4114 68.3658C19.4114 68.3658 -0.220596 35.1882 1.52865 22.3884C2.3667 16.257 5.57217 10.7144 10.4399 6.97983C15.3076 3.24526 21.4389 1.62466 27.4848 2.47455C33.5308 3.32443 38.9962 6.57519 42.6788 11.5117C46.3613 16.4482 47.9594 22.666 47.1213 28.7974L47.1258 28.7928Z" fill="#F56920"/>
<path d="M35.9774 25.3358C36.852 18.9358 32.4569 13.0302 26.1607 12.1453C19.8646 11.2605 14.0515 15.7314 13.177 22.1314C12.3024 28.5315 16.6974 34.4371 22.9936 35.3219C29.2898 36.2068 35.1028 31.7359 35.9774 25.3358Z" fill="white"/>
<defs>
<linearGradient id="paint0_linear" x1="28201.1" y1="20988.5" x2="29734.7" y2="10076.8" gradientUnits="userSpaceOnUse">
<stop stop-color="#808080" stop-opacity="0.25"/>
<stop offset="0.54" stop-color="#808080" stop-opacity="0.12"/>
<stop offset="1" stop-color="#808080" stop-opacity="0.1"/>
</linearGradient>
</defs>
</svg>
