<svg width="110" height="43" viewBox="0 0 110 43" fill="none" xmlns="http://www.w3.org/2000/svg">
<g filter="url(#filter0_d)">
<rect x="7" y="4" width="95.9335" height="28.5208" rx="14.2604" fill="#1B1B1E"/>
</g>
<path d="M95.7827 18.5172C94.2938 22.0615 84.7696 27.7562 84.7696 27.7562C84.7696 27.7562 81.6823 16.708 83.1712 13.1637C83.5173 12.3128 84.0263 11.5388 84.6686 10.8863C85.3109 10.2338 86.0739 9.71589 86.9132 9.36253C87.7526 9.00916 88.6517 8.82737 89.5585 8.82767C90.4653 8.82798 91.3617 9.01038 92.196 9.36431C93.0302 9.71824 93.7856 10.2367 94.4184 10.8896C95.0513 11.5425 95.549 12.3169 95.8828 13.168C96.2165 14.019 96.3797 14.9299 96.3629 15.8477C96.346 16.7655 96.1494 17.6722 95.7846 18.5151L95.7827 18.5172Z" fill="url(#paint0_linear)"/>
<path d="M95.3364 18.4582C93.9401 21.7828 85.0053 27.1255 85.0053 27.1255C85.0053 27.1255 82.1091 16.762 83.5054 13.4374C84.1743 11.8448 85.439 10.582 87.0212 9.92679C88.6034 9.27155 90.3736 9.27756 91.9422 9.94348C93.5109 10.6094 94.7496 11.8807 95.3859 13.4777C96.0221 15.0747 96.0038 16.8665 95.3349 18.4591L95.3364 18.4582Z" fill="#E97450"/>
<path d="M92.5805 16.7209C93.2786 15.0585 92.5203 13.1488 90.8867 12.4553C89.2531 11.7619 87.3628 12.5474 86.6646 14.2098C85.9665 15.8721 86.7248 17.7819 88.3584 18.4753C89.992 19.1687 91.8823 18.3832 92.5805 16.7209Z" fill="white"/>
<path d="M23.0412 11.4626H23.9065V14.7169C23.5084 15.0663 23.0371 15.3344 22.4927 15.5213C21.9483 15.7082 21.3754 15.8016 20.7741 15.8016C19.9209 15.8016 19.1531 15.6148 18.4705 15.241C17.788 14.8672 17.2517 14.3512 16.8617 13.6931C16.4716 13.0268 16.2766 12.2833 16.2766 11.4626C16.2766 10.6419 16.4716 9.90248 16.8617 9.24431C17.2517 8.57801 17.788 8.05797 18.4705 7.68419C19.1531 7.31042 19.925 7.12353 20.7863 7.12353C21.4364 7.12353 22.0336 7.22916 22.578 7.44043C23.1224 7.64357 23.5815 7.94828 23.9553 8.35455L23.3946 8.92741C22.7202 8.26111 21.863 7.92796 20.8229 7.92796C20.1322 7.92796 19.5065 8.08235 18.9459 8.39112C18.3933 8.69177 17.9586 9.1143 17.6417 9.65871C17.3248 10.195 17.1664 10.7963 17.1664 11.4626C17.1664 12.1289 17.3248 12.7302 17.6417 13.2665C17.9586 13.8028 18.3933 14.2253 18.9459 14.5341C19.4984 14.8428 20.12 14.9972 20.8107 14.9972C21.6883 14.9972 22.4317 14.7778 23.0412 14.339V11.4626ZM32.0537 9.31744V15.7285H31.2249V14.5584C30.9974 14.9485 30.6845 15.2532 30.2864 15.4726C29.8882 15.6838 29.4332 15.7895 28.9213 15.7895C28.0844 15.7895 27.4221 15.5579 26.9346 15.0947C26.4552 14.6234 26.2155 13.9368 26.2155 13.0349V9.31744H27.0808V12.9496C27.0808 13.624 27.2474 14.1359 27.5806 14.4853C27.9137 14.8347 28.3891 15.0094 29.0066 15.0094C29.681 15.0094 30.2133 14.8063 30.6033 14.4C30.9933 13.9856 31.1883 13.4127 31.1883 12.6814V9.31744H32.0537ZM40.0596 12.7911H34.6968C34.7455 13.4574 35.0015 13.9978 35.4646 14.4122C35.9278 14.8185 36.5128 15.0216 37.2198 15.0216C37.6179 15.0216 37.9836 14.9525 38.3167 14.8144C38.6499 14.6681 38.9383 14.4569 39.1821 14.1806L39.6696 14.7413C39.3852 15.0825 39.0277 15.3426 38.597 15.5213C38.1745 15.7001 37.7073 15.7895 37.1954 15.7895C36.5372 15.7895 35.9522 15.6513 35.4403 15.3751C34.9365 15.0907 34.5424 14.7006 34.258 14.205C33.9736 13.7093 33.8314 13.1486 33.8314 12.523C33.8314 11.8973 33.9655 11.3366 34.2336 10.841C34.5099 10.3453 34.8836 9.95936 35.3549 9.68309C35.8343 9.40682 36.3706 9.26868 36.9638 9.26868C37.557 9.26868 38.0892 9.40682 38.5605 9.68309C39.0318 9.95936 39.4015 10.3453 39.6696 10.841C39.9378 11.3285 40.0718 11.8892 40.0718 12.523L40.0596 12.7911ZM36.9638 10.0122C36.3463 10.0122 35.8262 10.2112 35.4037 10.6094C34.9893 10.9994 34.7536 11.5113 34.6968 12.1451H39.243C39.1861 11.5113 38.9464 10.9994 38.5239 10.6094C38.1095 10.2112 37.5895 10.0122 36.9638 10.0122ZM43.5518 15.7895C43.0318 15.7895 42.532 15.7163 42.0526 15.5701C41.5813 15.4157 41.2116 15.2247 40.9435 14.9972L41.3335 14.3147C41.6017 14.5259 41.9389 14.7006 42.3452 14.8388C42.7514 14.9688 43.174 15.0338 43.6127 15.0338C44.1978 15.0338 44.6284 14.9444 44.9047 14.7656C45.1891 14.5787 45.3313 14.3187 45.3313 13.9856C45.3313 13.7499 45.2541 13.5671 45.0997 13.4371C44.9453 13.299 44.7503 13.1974 44.5147 13.1324C44.279 13.0593 43.9662 12.9902 43.5762 12.9252C43.0561 12.8277 42.6377 12.7302 42.3208 12.6327C42.0039 12.527 41.7317 12.3523 41.5042 12.1086C41.2848 11.8648 41.1751 11.5276 41.1751 11.0969C41.1751 10.5606 41.3985 10.1219 41.8454 9.78059C42.2923 9.43932 42.9139 9.26868 43.7102 9.26868C44.1247 9.26868 44.5391 9.32556 44.9535 9.43932C45.3679 9.54495 45.7091 9.68715 45.9773 9.86591L45.5994 10.5606C45.0713 10.195 44.4415 10.0122 43.7102 10.0122C43.1577 10.0122 42.7392 10.1097 42.4548 10.3047C42.1786 10.4997 42.0404 10.7557 42.0404 11.0726C42.0404 11.3163 42.1176 11.5113 42.272 11.6576C42.4345 11.8039 42.6336 11.9136 42.8693 11.9867C43.1049 12.0517 43.4299 12.1208 43.8443 12.1939C44.3562 12.2914 44.7666 12.3889 45.0753 12.4864C45.3841 12.5839 45.6482 12.7505 45.8676 12.9861C46.087 13.2218 46.1967 13.5468 46.1967 13.9612C46.1967 14.5219 45.961 14.9688 45.4897 15.3019C45.0266 15.6269 44.3806 15.7895 43.5518 15.7895ZM49.5151 15.7895C48.995 15.7895 48.4953 15.7163 48.0159 15.5701C47.5446 15.4157 47.1749 15.2247 46.9067 14.9972L47.2968 14.3147C47.5649 14.5259 47.9021 14.7006 48.3084 14.8388C48.7147 14.9688 49.1372 15.0338 49.576 15.0338C50.161 15.0338 50.5917 14.9444 50.868 14.7656C51.1524 14.5787 51.2946 14.3187 51.2946 13.9856C51.2946 13.7499 51.2174 13.5671 51.063 13.4371C50.9086 13.299 50.7136 13.1974 50.4779 13.1324C50.2423 13.0593 49.9295 12.9902 49.5394 12.9252C49.0194 12.8277 48.6009 12.7302 48.284 12.6327C47.9671 12.527 47.6949 12.3523 47.4674 12.1086C47.248 11.8648 47.1383 11.5276 47.1383 11.0969C47.1383 10.5606 47.3618 10.1219 47.8087 9.78059C48.2556 9.43932 48.8772 9.26868 49.6735 9.26868C50.0879 9.26868 50.5023 9.32556 50.9167 9.43932C51.3311 9.54495 51.6724 9.68715 51.9405 9.86591L51.5627 10.5606C51.0345 10.195 50.4048 10.0122 49.6735 10.0122C49.121 10.0122 48.7025 10.1097 48.4181 10.3047C48.1418 10.4997 48.0037 10.7557 48.0037 11.0726C48.0037 11.3163 48.0809 11.5113 48.2353 11.6576C48.3978 11.8039 48.5969 11.9136 48.8325 11.9867C49.0681 12.0517 49.3932 12.1208 49.8076 12.1939C50.3195 12.2914 50.7298 12.3889 51.0386 12.4864C51.3474 12.5839 51.6115 12.7505 51.8308 12.9861C52.0502 13.2218 52.1599 13.5468 52.1599 13.9612C52.1599 14.5219 51.9243 14.9688 51.453 15.3019C50.9898 15.6269 50.3439 15.7895 49.5151 15.7895ZM60.3258 15.3385C60.1633 15.4847 59.9602 15.5985 59.7164 15.6798C59.4808 15.7529 59.233 15.7895 58.9729 15.7895C58.3716 15.7895 57.9085 15.6269 57.5835 15.3019C57.2584 14.9769 57.0959 14.5178 57.0959 13.9246V10.0487H55.9502V9.31744H57.0959V7.91577H57.9613V9.31744H59.9114V10.0487H57.9613V13.8759C57.9613 14.2578 58.0547 14.5503 58.2416 14.7534C58.4366 14.9485 58.7129 15.046 59.0704 15.046C59.2492 15.046 59.4198 15.0175 59.5824 14.9606C59.753 14.9038 59.8993 14.8225 60.0211 14.7169L60.3258 15.3385ZM65.1677 9.26868C65.9721 9.26868 66.61 9.50432 67.0812 9.97561C67.5607 10.4388 67.8004 11.1173 67.8004 12.0111V15.7285H66.935V12.0964C66.935 11.4301 66.7684 10.9222 66.4353 10.5728C66.1021 10.2234 65.6268 10.0487 65.0092 10.0487C64.3185 10.0487 63.7701 10.2559 63.3638 10.6703C62.9656 11.0766 62.7666 11.6414 62.7666 12.3645V15.7285H61.9012V6.68475H62.7666V10.4388C63.0022 10.065 63.3272 9.77653 63.7416 9.57339C64.156 9.37025 64.6314 9.26868 65.1677 9.26868ZM75.7558 12.7911H70.393C70.4417 13.4574 70.6977 13.9978 71.1608 14.4122C71.624 14.8185 72.209 15.0216 72.9159 15.0216C73.3141 15.0216 73.6798 14.9525 74.0129 14.8144C74.3461 14.6681 74.6345 14.4569 74.8783 14.1806L75.3658 14.7413C75.0814 15.0825 74.7239 15.3426 74.2932 15.5213C73.8707 15.7001 73.4035 15.7895 72.8916 15.7895C72.2334 15.7895 71.6484 15.6513 71.1364 15.3751C70.6327 15.0907 70.2386 14.7006 69.9542 14.205C69.6698 13.7093 69.5276 13.1486 69.5276 12.523C69.5276 11.8973 69.6617 11.3366 69.9298 10.841C70.2061 10.3453 70.5798 9.95936 71.0511 9.68309C71.5305 9.40682 72.0668 9.26868 72.66 9.26868C73.2532 9.26868 73.7854 9.40682 74.2567 9.68309C74.728 9.95936 75.0977 10.3453 75.3658 10.841C75.634 11.3285 75.768 11.8892 75.768 12.523L75.7558 12.7911ZM72.66 10.0122C72.0424 10.0122 71.5224 10.2112 71.0999 10.6094C70.6855 10.9994 70.4498 11.5113 70.393 12.1451H74.9392C74.8823 11.5113 74.6426 10.9994 74.2201 10.6094C73.8057 10.2112 73.2857 10.0122 72.66 10.0122ZM16.6423 18.6847H18.1658V27.7285H16.6423V18.6847ZM24.5533 27.8138C23.8951 27.8138 23.3019 27.6716 22.7738 27.3872C22.2456 27.1028 21.8312 26.7088 21.5306 26.205C21.238 25.6931 21.0918 25.1161 21.0918 24.4742C21.0918 23.8323 21.238 23.2594 21.5306 22.7557C21.8312 22.2519 22.2456 21.8578 22.7738 21.5734C23.3019 21.289 23.8951 21.1468 24.5533 21.1468C25.2196 21.1468 25.8168 21.289 26.345 21.5734C26.8731 21.8578 27.2835 22.2519 27.576 22.7557C27.8766 23.2594 28.027 23.8323 28.027 24.4742C28.027 25.1161 27.8766 25.6931 27.576 26.205C27.2835 26.7088 26.8731 27.1028 26.345 27.3872C25.8168 27.6716 25.2196 27.8138 24.5533 27.8138ZM24.5533 26.5097C25.1139 26.5097 25.5771 26.3228 25.9428 25.949C26.3084 25.5752 26.4912 25.0836 26.4912 24.4742C26.4912 23.8648 26.3084 23.3732 25.9428 22.9994C25.5771 22.6257 25.1139 22.4388 24.5533 22.4388C23.9926 22.4388 23.5295 22.6257 23.1638 22.9994C22.8063 23.3732 22.6275 23.8648 22.6275 24.4742C22.6275 25.0836 22.8063 25.5752 23.1638 25.949C23.5295 26.3228 23.9926 26.5097 24.5533 26.5097ZM33.9326 27.8138C33.2582 27.8138 32.6528 27.6716 32.1165 27.3872C31.5803 27.1028 31.1618 26.7088 30.8611 26.205C30.5605 25.6931 30.4102 25.1161 30.4102 24.4742C30.4102 23.8323 30.5605 23.2594 30.8611 22.7557C31.1618 22.2519 31.5762 21.8578 32.1044 21.5734C32.6406 21.289 33.2501 21.1468 33.9326 21.1468C34.5745 21.1468 35.1352 21.2768 35.6146 21.5368C36.1021 21.7968 36.4678 22.1706 36.7116 22.6582L35.5415 23.3407C35.3546 23.0401 35.1189 22.8166 34.8345 22.6703C34.5583 22.516 34.2536 22.4388 33.9204 22.4388C33.3516 22.4388 32.8803 22.6257 32.5066 22.9994C32.1328 23.3651 31.9459 23.8567 31.9459 24.4742C31.9459 25.0918 32.1287 25.5874 32.4944 25.9612C32.8682 26.3269 33.3435 26.5097 33.9204 26.5097C34.2536 26.5097 34.5583 26.4365 34.8345 26.2903C35.1189 26.1359 35.3546 25.9084 35.5415 25.6077L36.7116 26.2903C36.4597 26.7778 36.0899 27.1557 35.6024 27.4238C35.123 27.6838 34.5664 27.8138 33.9326 27.8138ZM41.9776 21.1468C42.9364 21.1468 43.6677 21.3784 44.1715 21.8415C44.6834 22.2966 44.9394 22.9872 44.9394 23.9136V27.7285H43.5011V26.9363C43.3143 27.2207 43.0461 27.4401 42.6967 27.5944C42.3554 27.7407 41.941 27.8138 41.4535 27.8138C40.966 27.8138 40.5394 27.7326 40.1737 27.5701C39.8081 27.3994 39.5237 27.1679 39.3205 26.8753C39.1255 26.5747 39.028 26.2375 39.028 25.8637C39.028 25.2787 39.2433 24.8114 39.674 24.462C40.1128 24.1045 40.7994 23.9257 41.7338 23.9257H43.4158V23.8282C43.4158 23.3732 43.2777 23.0238 43.0014 22.78C42.7333 22.5363 42.3311 22.4144 41.7948 22.4144C41.4291 22.4144 41.0675 22.4713 40.71 22.585C40.3606 22.6988 40.064 22.8572 39.8203 23.0604L39.223 21.9512C39.5643 21.6912 39.9746 21.4921 40.454 21.354C40.9335 21.2159 41.4413 21.1468 41.9776 21.1468ZM41.7704 26.7047C42.1523 26.7047 42.4895 26.6194 42.782 26.4487C43.0827 26.27 43.2939 26.0181 43.4158 25.6931V24.9374H41.8435C40.966 24.9374 40.5272 25.2258 40.5272 25.8028C40.5272 26.079 40.6369 26.2984 40.8563 26.4609C41.0757 26.6234 41.3804 26.7047 41.7704 26.7047ZM52.2697 27.3751C52.091 27.5213 51.8716 27.631 51.6115 27.7041C51.3597 27.7773 51.0915 27.8138 50.8071 27.8138C50.0921 27.8138 49.5395 27.6269 49.1495 27.2532C48.7595 26.8794 48.5645 26.335 48.5645 25.6199V22.4875H47.4919V21.2687H48.5645V19.7817H50.088V21.2687H51.8309V22.4875H50.088V25.5834C50.088 25.9003 50.1652 26.144 50.3196 26.3147C50.474 26.4772 50.6974 26.5584 50.9899 26.5584C51.3312 26.5584 51.6156 26.4691 51.8431 26.2903L52.2697 27.3751ZM54.9856 21.2199H56.5092V27.7285H54.9856V21.2199ZM55.7535 20.1474C55.4772 20.1474 55.2456 20.062 55.0588 19.8914C54.8719 19.7126 54.7784 19.4932 54.7784 19.2332C54.7784 18.9732 54.8719 18.7579 55.0588 18.5872C55.2456 18.4085 55.4772 18.3191 55.7535 18.3191C56.0298 18.3191 56.2613 18.4044 56.4482 18.5751C56.6351 18.7376 56.7286 18.9448 56.7286 19.1967C56.7286 19.4648 56.6351 19.6923 56.4482 19.8792C56.2695 20.058 56.0379 20.1474 55.7535 20.1474ZM62.8966 27.8138C62.2385 27.8138 61.6453 27.6716 61.1171 27.3872C60.589 27.1028 60.1746 26.7088 59.8739 26.205C59.5814 25.6931 59.4351 25.1161 59.4351 24.4742C59.4351 23.8323 59.5814 23.2594 59.8739 22.7557C60.1746 22.2519 60.589 21.8578 61.1171 21.5734C61.6453 21.289 62.2385 21.1468 62.8966 21.1468C63.5629 21.1468 64.1602 21.289 64.6883 21.5734C65.2165 21.8578 65.6268 22.2519 65.9194 22.7557C66.22 23.2594 66.3703 23.8323 66.3703 24.4742C66.3703 25.1161 66.22 25.6931 65.9194 26.205C65.6268 26.7088 65.2165 27.1028 64.6883 27.3872C64.1602 27.6716 63.5629 27.8138 62.8966 27.8138ZM62.8966 26.5097C63.4573 26.5097 63.9205 26.3228 64.2861 25.949C64.6518 25.5752 64.8346 25.0836 64.8346 24.4742C64.8346 23.8648 64.6518 23.3732 64.2861 22.9994C63.9205 22.6257 63.4573 22.4388 62.8966 22.4388C62.336 22.4388 61.8728 22.6257 61.5072 22.9994C61.1496 23.3732 60.9709 23.8648 60.9709 24.4742C60.9709 25.0836 61.1496 25.5752 61.5072 25.949C61.8728 26.3228 62.336 26.5097 62.8966 26.5097ZM72.9829 21.1468C73.8036 21.1468 74.4617 21.3865 74.9574 21.8659C75.4531 22.3453 75.7009 23.0563 75.7009 23.9989V27.7285H74.1774V24.1939C74.1774 23.6251 74.0433 23.1985 73.7751 22.9141C73.507 22.6216 73.1251 22.4753 72.6294 22.4753C72.0688 22.4753 71.6259 22.646 71.3009 22.9872C70.9759 23.3204 70.8134 23.8039 70.8134 24.4377V27.7285H69.2898V21.2199H70.7402V22.0609C70.9921 21.7603 71.309 21.5328 71.6909 21.3784C72.0728 21.224 72.5035 21.1468 72.9829 21.1468Z" fill="#F56920"/>
<defs>
<filter id="filter0_d" x="0.0858736" y="0.542937" width="109.762" height="42.349" filterUnits="userSpaceOnUse" color-interpolation-filters="sRGB">
<feFlood flood-opacity="0" result="BackgroundImageFix"/>
<feColorMatrix in="SourceAlpha" type="matrix" values="0 0 0 0 0 0 0 0 0 0 0 0 0 0 0 0 0 0 127 0"/>
<feOffset dy="3.45706"/>
<feGaussianBlur stdDeviation="3.45706"/>
<feColorMatrix type="matrix" values="0 0 0 0 0 0 0 0 0 0 0 0 0 0 0 0 0 0 0.25 0"/>
<feBlend mode="normal" in2="BackgroundImageFix" result="effect1_dropShadow"/>
<feBlend mode="normal" in="SourceGraphic" in2="effect1_dropShadow" result="shape"/>
</filter>
<linearGradient id="paint0_linear" x1="6171.86" y1="7703.44" x2="7373.63" y2="4872.26" gradientUnits="userSpaceOnUse">
<stop stop-color="#808080" stop-opacity="0.25"/>
<stop offset="0.54" stop-color="#808080" stop-opacity="0.12"/>
<stop offset="1" stop-color="#808080" stop-opacity="0.1"/>
</linearGradient>
</defs>
</svg>
