<svg width="154" height="189" viewBox="0 0 154 189" fill="none" xmlns="http://www.w3.org/2000/svg">
<g filter="url(#filter0_d)">
<rect x="7" y="4" width="140" height="174" rx="21.9391" fill="#1B1B1E"/>
</g>
<path d="M96.1399 26.7889C94.651 30.3332 85.1268 36.0279 85.1268 36.0279C85.1268 36.0279 82.0395 24.9797 83.5284 21.4354C83.8745 20.5846 84.3835 19.8105 85.0258 19.158C85.6681 18.5055 86.431 17.9876 87.2704 17.6343C88.1097 17.2809 89.0089 17.0991 89.9156 17.0994C90.8224 17.0997 91.7189 17.2821 92.5531 17.636C93.3874 17.99 94.1428 18.5084 94.7756 19.1613C95.4085 19.8142 95.9062 20.5886 96.2399 21.4397C96.5737 22.2908 96.7369 23.2016 96.72 24.1194C96.7032 25.0373 96.5066 25.9439 96.1418 26.7868L96.1399 26.7889Z" fill="url(#paint0_linear)"/>
<path d="M95.6936 26.7299C94.2973 30.0546 85.3625 35.3972 85.3625 35.3972C85.3625 35.3972 82.4663 25.0338 83.8626 21.7091C84.5315 20.1166 85.7962 18.8538 87.3784 18.1985C88.9606 17.5433 90.7307 17.5493 92.2994 18.2152C93.8681 18.8811 95.1068 20.1524 95.743 21.7494C96.3793 23.3464 96.3609 25.1383 95.692 26.7308L95.6936 26.7299Z" fill="#E97450"/>
<path d="M92.9377 24.9926C93.6358 23.3302 92.8775 21.4205 91.2439 20.7271C89.6103 20.0336 87.72 20.8191 87.0218 22.4815C86.3237 24.1438 87.082 26.0536 88.7156 26.747C90.3492 27.4404 92.2395 26.655 92.9377 24.9926Z" fill="white"/>
<path d="M23.3983 19.7341H24.2637V22.9884C23.8656 23.3378 23.3943 23.6059 22.8499 23.7928C22.3054 23.9797 21.7326 24.0731 21.1313 24.0731C20.2781 24.0731 19.5102 23.8862 18.8277 23.5125C18.1452 23.1387 17.6089 22.6227 17.2188 21.9645C16.8288 21.2982 16.6338 20.5548 16.6338 19.7341C16.6338 18.9134 16.8288 18.174 17.2188 17.5158C17.6089 16.8495 18.1452 16.3295 18.8277 15.9557C19.5102 15.5819 20.2822 15.395 21.1435 15.395C21.7935 15.395 22.3908 15.5006 22.9352 15.7119C23.4796 15.9151 23.9387 16.2198 24.3125 16.626L23.7518 17.1989C23.0774 16.5326 22.2201 16.1994 21.1801 16.1994C20.4894 16.1994 19.8637 16.3538 19.303 16.6626C18.7505 16.9633 18.3158 17.3858 17.9989 17.9302C17.682 18.4665 17.5235 19.0678 17.5235 19.7341C17.5235 20.4004 17.682 21.0017 17.9989 21.538C18.3158 22.0742 18.7505 22.4968 19.303 22.8055C19.8556 23.1143 20.4772 23.2687 21.1679 23.2687C22.0454 23.2687 22.7889 23.0493 23.3983 22.6105V19.7341ZM32.4109 17.5889V24H31.5821V22.8299C31.3545 23.2199 31.0417 23.5247 30.6436 23.744C30.2454 23.9553 29.7904 24.0609 29.2785 24.0609C28.4415 24.0609 27.7793 23.8294 27.2918 23.3662C26.8123 22.8949 26.5726 22.2083 26.5726 21.3064V17.5889H27.438V21.2211C27.438 21.8955 27.6046 22.4074 27.9377 22.7568C28.2709 23.1062 28.7462 23.2809 29.3638 23.2809C30.0382 23.2809 30.5704 23.0777 30.9605 22.6715C31.3505 22.2571 31.5455 21.6842 31.5455 20.9529V17.5889H32.4109ZM40.4168 21.0626H35.0539C35.1027 21.7289 35.3586 22.2693 35.8218 22.6837C36.285 23.0899 36.87 23.2931 37.5769 23.2931C37.9751 23.2931 38.3407 23.224 38.6739 23.0859C39.007 22.9396 39.2955 22.7283 39.5393 22.4521L40.0268 23.0127C39.7424 23.354 39.3849 23.614 38.9542 23.7928C38.5317 23.9716 38.0645 24.0609 37.5526 24.0609C36.8944 24.0609 36.3093 23.9228 35.7974 23.6465C35.2936 23.3621 34.8996 22.9721 34.6152 22.4765C34.3308 21.9808 34.1886 21.4201 34.1886 20.7945C34.1886 20.1688 34.3226 19.6081 34.5908 19.1125C34.867 18.6168 35.2408 18.2308 35.7121 17.9546C36.1915 17.6783 36.7278 17.5402 37.321 17.5402C37.9141 17.5402 38.4464 17.6783 38.9176 17.9546C39.3889 18.2308 39.7586 18.6168 40.0268 19.1125C40.2949 19.6 40.429 20.1607 40.429 20.7945L40.4168 21.0626ZM37.321 18.2837C36.7034 18.2837 36.1834 18.4827 35.7609 18.8809C35.3465 19.2709 35.1108 19.7828 35.0539 20.4166H39.6002C39.5433 19.7828 39.3036 19.2709 38.8811 18.8809C38.4667 18.4827 37.9466 18.2837 37.321 18.2837ZM43.909 24.0609C43.3889 24.0609 42.8892 23.9878 42.4098 23.8416C41.9385 23.6872 41.5688 23.4962 41.3007 23.2687L41.6907 22.5861C41.9588 22.7974 42.296 22.9721 42.7023 23.1102C43.1086 23.2403 43.5311 23.3053 43.9699 23.3053C44.555 23.3053 44.9856 23.2159 45.2619 23.0371C45.5463 22.8502 45.6885 22.5902 45.6885 22.2571C45.6885 22.0214 45.6113 21.8386 45.4569 21.7086C45.3025 21.5705 45.1075 21.4689 44.8719 21.4039C44.6362 21.3307 44.3234 21.2617 43.9334 21.1967C43.4133 21.0992 42.9948 21.0017 42.678 20.9042C42.3611 20.7985 42.0888 20.6238 41.8613 20.3801C41.6419 20.1363 41.5322 19.7991 41.5322 19.3684C41.5322 18.8321 41.7557 18.3934 42.2026 18.0521C42.6495 17.7108 43.2711 17.5402 44.0674 17.5402C44.4818 17.5402 44.8962 17.597 45.3106 17.7108C45.725 17.8164 46.0663 17.9586 46.3345 18.1374L45.9566 18.8321C45.4285 18.4665 44.7987 18.2837 44.0674 18.2837C43.5149 18.2837 43.0964 18.3812 42.812 18.5762C42.5358 18.7712 42.3976 19.0271 42.3976 19.344C42.3976 19.5878 42.4748 19.7828 42.6292 19.9291C42.7917 20.0753 42.9908 20.185 43.2264 20.2582C43.4621 20.3232 43.7871 20.3922 44.2015 20.4654C44.7134 20.5629 45.1237 20.6604 45.4325 20.7579C45.7413 20.8554 46.0054 21.022 46.2248 21.2576C46.4442 21.4933 46.5539 21.8183 46.5539 22.2327C46.5539 22.7934 46.3182 23.2403 45.8469 23.5734C45.3838 23.8984 44.7378 24.0609 43.909 24.0609ZM49.8722 24.0609C49.3522 24.0609 48.8525 23.9878 48.3731 23.8416C47.9018 23.6872 47.5321 23.4962 47.2639 23.2687L47.6539 22.5861C47.9221 22.7974 48.2593 22.9721 48.6656 23.1102C49.0719 23.2403 49.4944 23.3053 49.9332 23.3053C50.5182 23.3053 50.9489 23.2159 51.2251 23.0371C51.5095 22.8502 51.6517 22.5902 51.6517 22.2571C51.6517 22.0214 51.5745 21.8386 51.4202 21.7086C51.2658 21.5705 51.0708 21.4689 50.8351 21.4039C50.5995 21.3307 50.2866 21.2617 49.8966 21.1967C49.3766 21.0992 48.9581 21.0017 48.6412 20.9042C48.3243 20.7985 48.0521 20.6238 47.8246 20.3801C47.6052 20.1363 47.4955 19.7991 47.4955 19.3684C47.4955 18.8321 47.719 18.3934 48.1659 18.0521C48.6128 17.7108 49.2344 17.5402 50.0307 17.5402C50.4451 17.5402 50.8595 17.597 51.2739 17.7108C51.6883 17.8164 52.0296 17.9586 52.2977 18.1374L51.9199 18.8321C51.3917 18.4665 50.762 18.2837 50.0307 18.2837C49.4781 18.2837 49.0597 18.3812 48.7753 18.5762C48.499 18.7712 48.3609 19.0271 48.3609 19.344C48.3609 19.5878 48.4381 19.7828 48.5925 19.9291C48.755 20.0753 48.954 20.185 49.1897 20.2582C49.4253 20.3232 49.7503 20.3922 50.1647 20.4654C50.6767 20.5629 51.087 20.6604 51.3958 20.7579C51.7045 20.8554 51.9686 21.022 52.188 21.2576C52.4074 21.4933 52.5171 21.8183 52.5171 22.2327C52.5171 22.7934 52.2815 23.2403 51.8102 23.5734C51.347 23.8984 50.701 24.0609 49.8722 24.0609ZM60.683 23.61C60.5205 23.7562 60.3174 23.87 60.0736 23.9512C59.838 24.0244 59.5901 24.0609 59.3301 24.0609C58.7288 24.0609 58.2657 23.8984 57.9406 23.5734C57.6156 23.2484 57.4531 22.7893 57.4531 22.1961V18.3202H56.3074V17.5889H57.4531V16.1873H58.3185V17.5889H60.2686V18.3202H58.3185V22.1474C58.3185 22.5293 58.4119 22.8218 58.5988 23.0249C58.7938 23.2199 59.0701 23.3175 59.4276 23.3175C59.6064 23.3175 59.777 23.289 59.9395 23.2321C60.1102 23.1753 60.2564 23.094 60.3783 22.9884L60.683 23.61ZM65.5248 17.5402C66.3293 17.5402 66.9671 17.7758 67.4384 18.2471C67.9178 18.7102 68.1575 19.3887 68.1575 20.2825V24H67.2922V20.3679C67.2922 19.7016 67.1256 19.1937 66.7924 18.8443C66.4593 18.4949 65.9839 18.3202 65.3664 18.3202C64.6757 18.3202 64.1273 18.5274 63.721 18.9418C63.3228 19.3481 63.1237 19.9128 63.1237 20.636V24H62.2584V14.9562H63.1237V18.7102C63.3594 18.3365 63.6844 18.048 64.0988 17.8449C64.5132 17.6417 64.9886 17.5402 65.5248 17.5402ZM76.113 21.0626H70.7501C70.7989 21.7289 71.0548 22.2693 71.518 22.6837C71.9812 23.0899 72.5662 23.2931 73.2731 23.2931C73.6713 23.2931 74.0369 23.224 74.3701 23.0859C74.7032 22.9396 74.9917 22.7283 75.2355 22.4521L75.723 23.0127C75.4386 23.354 75.0811 23.614 74.6504 23.7928C74.2279 23.9716 73.7607 24.0609 73.2488 24.0609C72.5906 24.0609 72.0055 23.9228 71.4936 23.6465C70.9898 23.3621 70.5957 22.9721 70.3114 22.4765C70.027 21.9808 69.8848 21.4201 69.8848 20.7945C69.8848 20.1688 70.0188 19.6081 70.287 19.1125C70.5632 18.6168 70.937 18.2308 71.4083 17.9546C71.8877 17.6783 72.424 17.5402 73.0172 17.5402C73.6103 17.5402 74.1426 17.6783 74.6138 17.9546C75.0851 18.2308 75.4548 18.6168 75.723 19.1125C75.9911 19.6 76.1252 20.1607 76.1252 20.7945L76.113 21.0626ZM73.0172 18.2837C72.3996 18.2837 71.8796 18.4827 71.4571 18.8809C71.0427 19.2709 70.807 19.7828 70.7501 20.4166H75.2964C75.2395 19.7828 74.9998 19.2709 74.5773 18.8809C74.1629 18.4827 73.6428 18.2837 73.0172 18.2837ZM16.9994 26.9562H18.523V36H16.9994V26.9562ZM24.9105 36.0853C24.2523 36.0853 23.6591 35.9431 23.131 35.6587C22.6028 35.3743 22.1884 34.9802 21.8877 34.4765C21.5952 33.9645 21.449 33.3876 21.449 32.7457C21.449 32.1038 21.5952 31.5309 21.8877 31.0271C22.1884 30.5234 22.6028 30.1293 23.131 29.8449C23.6591 29.5605 24.2523 29.4183 24.9105 29.4183C25.5768 29.4183 26.174 29.5605 26.7021 29.8449C27.2303 30.1293 27.6407 30.5234 27.9332 31.0271C28.2338 31.5309 28.3841 32.1038 28.3841 32.7457C28.3841 33.3876 28.2338 33.9645 27.9332 34.4765C27.6407 34.9802 27.2303 35.3743 26.7021 35.6587C26.174 35.9431 25.5768 36.0853 24.9105 36.0853ZM24.9105 34.7812C25.4711 34.7812 25.9343 34.5943 26.2999 34.2205C26.6656 33.8467 26.8484 33.3551 26.8484 32.7457C26.8484 32.1363 26.6656 31.6447 26.2999 31.2709C25.9343 30.8971 25.4711 30.7102 24.9105 30.7102C24.3498 30.7102 23.8866 30.8971 23.521 31.2709C23.1635 31.6447 22.9847 32.1363 22.9847 32.7457C22.9847 33.3551 23.1635 33.8467 23.521 34.2205C23.8866 34.5943 24.3498 34.7812 24.9105 34.7812ZM34.2898 36.0853C33.6154 36.0853 33.01 35.9431 32.4737 35.6587C31.9374 35.3743 31.519 34.9802 31.2183 34.4765C30.9177 33.9645 30.7673 33.3876 30.7673 32.7457C30.7673 32.1038 30.9177 31.5309 31.2183 31.0271C31.519 30.5234 31.9334 30.1293 32.4615 29.8449C32.9978 29.5605 33.6072 29.4183 34.2898 29.4183C34.9317 29.4183 35.4924 29.5483 35.9718 29.8083C36.4593 30.0683 36.825 30.4421 37.0687 30.9296L35.8986 31.6122C35.7118 31.3115 35.4761 31.0881 35.1917 30.9418C34.9155 30.7874 34.6107 30.7102 34.2776 30.7102C33.7088 30.7102 33.2375 30.8971 32.8637 31.2709C32.49 31.6366 32.3031 32.1282 32.3031 32.7457C32.3031 33.3633 32.4859 33.8589 32.8516 34.2327C33.2253 34.5983 33.7007 34.7812 34.2776 34.7812C34.6107 34.7812 34.9155 34.708 35.1917 34.5618C35.4761 34.4074 35.7118 34.1799 35.8986 33.8792L37.0687 34.5618C36.8168 35.0493 36.4471 35.4271 35.9596 35.6953C35.4802 35.9553 34.9236 36.0853 34.2898 36.0853ZM42.3348 29.4183C43.2936 29.4183 44.0249 29.6499 44.5287 30.113C45.0406 30.5681 45.2965 31.2587 45.2965 32.185V36H43.8583V35.2078C43.6714 35.4922 43.4033 35.7115 43.0539 35.8659C42.7126 36.0122 42.2982 36.0853 41.8107 36.0853C41.3231 36.0853 40.8965 36.0041 40.5309 35.8416C40.1652 35.6709 39.8808 35.4393 39.6777 35.1468C39.4827 34.8462 39.3852 34.509 39.3852 34.1352C39.3852 33.5501 39.6005 33.0829 40.0312 32.7335C40.47 32.376 41.1566 32.1972 42.091 32.1972H43.773V32.0997C43.773 31.6447 43.6349 31.2953 43.3586 31.0515C43.0905 30.8078 42.6882 30.6859 42.1519 30.6859C41.7863 30.6859 41.4247 30.7428 41.0672 30.8565C40.7178 30.9703 40.4212 31.1287 40.1774 31.3319L39.5802 30.2227C39.9215 29.9627 40.3318 29.7636 40.8112 29.6255C41.2906 29.4874 41.7985 29.4183 42.3348 29.4183ZM42.1276 34.9762C42.5095 34.9762 42.8467 34.8909 43.1392 34.7202C43.4399 34.5415 43.6511 34.2896 43.773 33.9645V33.2089H42.2007C41.3231 33.2089 40.8844 33.4973 40.8844 34.0742C40.8844 34.3505 40.9941 34.5699 41.2134 34.7324C41.4328 34.8949 41.7375 34.9762 42.1276 34.9762ZM52.6269 35.6465C52.4481 35.7928 52.2287 35.9025 51.9687 35.9756C51.7168 36.0488 51.4487 36.0853 51.1643 36.0853C50.4492 36.0853 49.8967 35.8984 49.5067 35.5247C49.1166 35.1509 48.9216 34.6065 48.9216 33.8914V30.759H47.8491V29.5402H48.9216V28.0532H50.4452V29.5402H52.1881V30.759H50.4452V33.8548C50.4452 34.1717 50.5224 34.4155 50.6768 34.5861C50.8311 34.7487 51.0546 34.8299 51.3471 34.8299C51.6884 34.8299 51.9728 34.7405 52.2003 34.5618L52.6269 35.6465ZM55.3428 29.4914H56.8663V36H55.3428V29.4914ZM56.1107 28.4188C55.8344 28.4188 55.6028 28.3335 55.4159 28.1629C55.229 27.9841 55.1356 27.7647 55.1356 27.5047C55.1356 27.2447 55.229 27.0294 55.4159 26.8587C55.6028 26.68 55.8344 26.5906 56.1107 26.5906C56.3869 26.5906 56.6185 26.6759 56.8054 26.8465C56.9923 27.009 57.0857 27.2163 57.0857 27.4681C57.0857 27.7363 56.9923 27.9638 56.8054 28.1507C56.6266 28.3295 56.3951 28.4188 56.1107 28.4188ZM63.2538 36.0853C62.5956 36.0853 62.0025 35.9431 61.4743 35.6587C60.9462 35.3743 60.5317 34.9802 60.2311 34.4765C59.9386 33.9645 59.7923 33.3876 59.7923 32.7457C59.7923 32.1038 59.9386 31.5309 60.2311 31.0271C60.5317 30.5234 60.9462 30.1293 61.4743 29.8449C62.0025 29.5605 62.5956 29.4183 63.2538 29.4183C63.9201 29.4183 64.5173 29.5605 65.0455 29.8449C65.5737 30.1293 65.984 30.5234 66.2765 31.0271C66.5772 31.5309 66.7275 32.1038 66.7275 32.7457C66.7275 33.3876 66.5772 33.9645 66.2765 34.4765C65.984 34.9802 65.5737 35.3743 65.0455 35.6587C64.5173 35.9431 63.9201 36.0853 63.2538 36.0853ZM63.2538 34.7812C63.8145 34.7812 64.2776 34.5943 64.6433 34.2205C65.0089 33.8467 65.1918 33.3551 65.1918 32.7457C65.1918 32.1363 65.0089 31.6447 64.6433 31.2709C64.2776 30.8971 63.8145 30.7102 63.2538 30.7102C62.6932 30.7102 62.23 30.8971 61.8643 31.2709C61.5068 31.6447 61.3281 32.1363 61.3281 32.7457C61.3281 33.3551 61.5068 33.8467 61.8643 34.2205C62.23 34.5943 62.6932 34.7812 63.2538 34.7812ZM73.3401 29.4183C74.1608 29.4183 74.8189 29.658 75.3146 30.1374C75.8102 30.6168 76.0581 31.3278 76.0581 32.2704V36H74.5345V32.4654C74.5345 31.8966 74.4005 31.47 74.1323 31.1856C73.8642 30.8931 73.4823 30.7468 72.9866 30.7468C72.4259 30.7468 71.9831 30.9175 71.6581 31.2587C71.3331 31.5919 71.1705 32.0753 71.1705 32.7091V36H69.647V29.4914H71.0974V30.3324C71.3493 30.0318 71.6662 29.8042 72.0481 29.6499C72.43 29.4955 72.8607 29.4183 73.3401 29.4183Z" fill="#F56920"/>
<g filter="url(#filter1_d)">
<rect x="14" y="55" width="125" height="25" rx="12.5" fill="#FAFAFA"/>
</g>
<g filter="url(#filter2_d)">
<rect x="14" y="94" width="125" height="25" rx="12.5" fill="#FAFAFA"/>
</g>
<g filter="url(#filter3_d)">
<rect x="14" y="133" width="125" height="25" rx="12.5" fill="#FAFAFA"/>
</g>
<defs>
<filter id="filter0_d" x="0.0858736" y="0.542937" width="153.828" height="187.828" filterUnits="userSpaceOnUse" color-interpolation-filters="sRGB">
<feFlood flood-opacity="0" result="BackgroundImageFix"/>
<feColorMatrix in="SourceAlpha" type="matrix" values="0 0 0 0 0 0 0 0 0 0 0 0 0 0 0 0 0 0 127 0"/>
<feOffset dy="3.45706"/>
<feGaussianBlur stdDeviation="3.45706"/>
<feColorMatrix type="matrix" values="0 0 0 0 0 0 0 0 0 0 0 0 0 0 0 0 0 0 0.25 0"/>
<feBlend mode="normal" in2="BackgroundImageFix" result="effect1_dropShadow"/>
<feBlend mode="normal" in="SourceGraphic" in2="effect1_dropShadow" result="shape"/>
</filter>
<filter id="filter1_d" x="7.08587" y="51.5429" width="138.828" height="38.8283" filterUnits="userSpaceOnUse" color-interpolation-filters="sRGB">
<feFlood flood-opacity="0" result="BackgroundImageFix"/>
<feColorMatrix in="SourceAlpha" type="matrix" values="0 0 0 0 0 0 0 0 0 0 0 0 0 0 0 0 0 0 127 0"/>
<feOffset dy="3.45706"/>
<feGaussianBlur stdDeviation="3.45706"/>
<feColorMatrix type="matrix" values="0 0 0 0 0 0 0 0 0 0 0 0 0 0 0 0 0 0 0.25 0"/>
<feBlend mode="normal" in2="BackgroundImageFix" result="effect1_dropShadow"/>
<feBlend mode="normal" in="SourceGraphic" in2="effect1_dropShadow" result="shape"/>
</filter>
<filter id="filter2_d" x="7.08587" y="90.5429" width="138.828" height="38.8283" filterUnits="userSpaceOnUse" color-interpolation-filters="sRGB">
<feFlood flood-opacity="0" result="BackgroundImageFix"/>
<feColorMatrix in="SourceAlpha" type="matrix" values="0 0 0 0 0 0 0 0 0 0 0 0 0 0 0 0 0 0 127 0"/>
<feOffset dy="3.45706"/>
<feGaussianBlur stdDeviation="3.45706"/>
<feColorMatrix type="matrix" values="0 0 0 0 0 0 0 0 0 0 0 0 0 0 0 0 0 0 0.25 0"/>
<feBlend mode="normal" in2="BackgroundImageFix" result="effect1_dropShadow"/>
<feBlend mode="normal" in="SourceGraphic" in2="effect1_dropShadow" result="shape"/>
</filter>
<filter id="filter3_d" x="7.08587" y="129.543" width="138.828" height="38.8283" filterUnits="userSpaceOnUse" color-interpolation-filters="sRGB">
<feFlood flood-opacity="0" result="BackgroundImageFix"/>
<feColorMatrix in="SourceAlpha" type="matrix" values="0 0 0 0 0 0 0 0 0 0 0 0 0 0 0 0 0 0 127 0"/>
<feOffset dy="3.45706"/>
<feGaussianBlur stdDeviation="3.45706"/>
<feColorMatrix type="matrix" values="0 0 0 0 0 0 0 0 0 0 0 0 0 0 0 0 0 0 0.25 0"/>
<feBlend mode="normal" in2="BackgroundImageFix" result="effect1_dropShadow"/>
<feBlend mode="normal" in="SourceGraphic" in2="effect1_dropShadow" result="shape"/>
</filter>
<linearGradient id="paint0_linear" x1="6172.22" y1="7711.72" x2="7373.99" y2="4880.53" gradientUnits="userSpaceOnUse">
<stop stop-color="#808080" stop-opacity="0.25"/>
<stop offset="0.54" stop-color="#808080" stop-opacity="0.12"/>
<stop offset="1" stop-color="#808080" stop-opacity="0.1"/>
</linearGradient>
</defs>
</svg>
