<svg width="373" height="39" viewBox="0 0 373 39" fill="none" xmlns="http://www.w3.org/2000/svg">
<path d="M0 0H373V28.1457C373 34.1404 368.14 39 362.146 39H10.8543C4.85962 39 0 34.1404 0 28.1457V0Z" fill="#FAFAFA"/>
<path d="M94 16.8543C94 10.8596 98.8596 6 104.854 6H350.146C356.14 6 361 10.8596 361 16.8543V22.1457C361 28.1404 356.14 33 350.146 33H94V16.8543Z" fill="#C4C4C4"/>
<path d="M109.111 25.1365C108.474 25.1365 107.902 25.0303 107.397 24.818C106.891 24.5955 106.492 24.2921 106.198 23.9078C105.905 23.5135 105.743 23.0634 105.713 22.5578H107.139C107.179 22.9724 107.371 23.3112 107.715 23.5741C108.069 23.8371 108.529 23.9685 109.096 23.9685C109.621 23.9685 110.036 23.8522 110.339 23.6196C110.643 23.387 110.794 23.0938 110.794 22.7398C110.794 22.3758 110.633 22.1078 110.309 21.9359C109.985 21.7539 109.485 21.5769 108.807 21.405C108.191 21.2432 107.685 21.0814 107.29 20.9196C106.906 20.7477 106.573 20.4999 106.289 20.1763C106.016 19.8426 105.88 19.4078 105.88 18.8718C105.88 18.4471 106.006 18.0577 106.259 17.7038C106.512 17.3499 106.871 17.0718 107.336 16.8695C107.801 16.6571 108.332 16.551 108.929 16.551C109.849 16.551 110.592 16.7836 111.159 17.2487C111.725 17.7139 112.028 18.351 112.069 19.16H110.688C110.658 18.7252 110.481 18.3763 110.157 18.1134C109.844 17.8504 109.419 17.719 108.883 17.719C108.388 17.719 107.993 17.8251 107.7 18.0375C107.407 18.2499 107.26 18.528 107.26 18.8718C107.26 19.1448 107.346 19.3724 107.518 19.5544C107.7 19.7263 107.923 19.8679 108.185 19.9791C108.458 20.0802 108.833 20.1965 109.308 20.328C109.905 20.4898 110.39 20.6516 110.764 20.8134C111.138 20.9651 111.457 21.1977 111.72 21.5112C111.993 21.8247 112.134 22.2342 112.145 22.7398C112.145 23.1949 112.018 23.6045 111.765 23.9685C111.512 24.3326 111.153 24.6208 110.688 24.8331C110.233 25.0354 109.707 25.1365 109.111 25.1365ZM113.577 20.8134C113.577 19.964 113.749 19.2207 114.093 18.5836C114.437 17.9364 114.907 17.4358 115.504 17.0819C116.111 16.7279 116.783 16.551 117.521 16.551C118.249 16.551 118.881 16.7077 119.417 17.0212C119.953 17.3347 120.353 17.7291 120.616 18.2044V16.6875H122.011V25H120.616V23.4528C120.343 23.9382 119.933 24.3427 119.387 24.6663C118.851 24.9798 118.224 25.1365 117.506 25.1365C116.768 25.1365 116.1 24.9545 115.504 24.5904C114.907 24.2264 114.437 23.7157 114.093 23.0584C113.749 22.4011 113.577 21.6527 113.577 20.8134ZM120.616 20.8286C120.616 20.2016 120.489 19.6555 120.236 19.1903C119.984 18.7252 119.64 18.3712 119.205 18.1285C118.78 17.8757 118.31 17.7493 117.794 17.7493C117.279 17.7493 116.808 17.8707 116.384 18.1134C115.959 18.3561 115.62 18.71 115.367 19.1752C115.114 19.6403 114.988 20.1864 114.988 20.8134C114.988 21.4505 115.114 22.0067 115.367 22.482C115.62 22.9472 115.959 23.3061 116.384 23.559C116.808 23.8017 117.279 23.923 117.794 23.923C118.31 23.923 118.78 23.8017 119.205 23.559C119.64 23.3061 119.984 22.9472 120.236 22.482C120.489 22.0067 120.616 21.4556 120.616 20.8286ZM131.504 16.6875L126.498 28.9136H125.072L126.71 24.909L123.358 16.6875H124.89L127.499 23.4224L130.078 16.6875H131.504ZM139.878 25.1365C139.241 25.1365 138.67 25.0303 138.164 24.818C137.658 24.5955 137.259 24.2921 136.966 23.9078C136.672 23.5135 136.511 23.0634 136.48 22.5578H137.906C137.946 22.9724 138.139 23.3112 138.482 23.5741C138.836 23.8371 139.297 23.9685 139.863 23.9685C140.389 23.9685 140.803 23.8522 141.107 23.6196C141.41 23.387 141.562 23.0938 141.562 22.7398C141.562 22.3758 141.4 22.1078 141.076 21.9359C140.753 21.7539 140.252 21.5769 139.575 21.405C138.958 21.2432 138.452 21.0814 138.058 20.9196C137.673 20.7477 137.34 20.4999 137.057 20.1763C136.784 19.8426 136.647 19.4078 136.647 18.8718C136.647 18.4471 136.773 18.0577 137.026 17.7038C137.279 17.3499 137.638 17.0718 138.103 16.8695C138.568 16.6571 139.099 16.551 139.696 16.551C140.616 16.551 141.359 16.7836 141.926 17.2487C142.492 17.7139 142.795 18.351 142.836 19.16H141.456C141.425 18.7252 141.248 18.3763 140.925 18.1134C140.611 17.8504 140.186 17.719 139.65 17.719C139.155 17.719 138.761 17.8251 138.467 18.0375C138.174 18.2499 138.027 18.528 138.027 18.8718C138.027 19.1448 138.113 19.3724 138.285 19.5544C138.467 19.7263 138.69 19.8679 138.953 19.9791C139.226 20.0802 139.6 20.1965 140.075 20.328C140.672 20.4898 141.157 20.6516 141.531 20.8134C141.906 20.9651 142.224 21.1977 142.487 21.5112C142.76 21.8247 142.902 22.2342 142.912 22.7398C142.912 23.1949 142.785 23.6045 142.533 23.9685C142.28 24.3326 141.921 24.6208 141.456 24.8331C141 25.0354 140.475 25.1365 139.878 25.1365ZM148.486 25.1365C147.707 25.1365 146.999 24.9595 146.362 24.6056C145.735 24.2517 145.24 23.7511 144.876 23.1039C144.522 22.4466 144.345 21.6881 144.345 20.8286C144.345 19.9791 144.527 19.2308 144.891 18.5836C145.265 17.9263 145.77 17.4257 146.408 17.0819C147.045 16.7279 147.758 16.551 148.546 16.551C149.335 16.551 150.048 16.7279 150.685 17.0819C151.322 17.4257 151.823 17.9212 152.187 18.5684C152.561 19.2156 152.748 19.969 152.748 20.8286C152.748 21.6881 152.556 22.4466 152.172 23.1039C151.798 23.7511 151.287 24.2517 150.64 24.6056C149.992 24.9595 149.274 25.1365 148.486 25.1365ZM148.486 23.923C148.981 23.923 149.446 23.8067 149.881 23.5741C150.316 23.3415 150.665 22.9927 150.928 22.5275C151.201 22.0623 151.337 21.496 151.337 20.8286C151.337 20.1611 151.206 19.5948 150.943 19.1297C150.68 18.6645 150.336 18.3207 149.912 18.0982C149.487 17.8656 149.027 17.7493 148.531 17.7493C148.026 17.7493 147.56 17.8656 147.136 18.0982C146.721 18.3207 146.387 18.6645 146.135 19.1297C145.882 19.5948 145.755 20.1611 145.755 20.8286C145.755 21.5061 145.877 22.0775 146.119 22.5427C146.372 23.0078 146.706 23.3567 147.121 23.5893C147.535 23.8118 147.99 23.923 148.486 23.923ZM164.559 16.5358C165.207 16.5358 165.783 16.6723 166.289 16.9454C166.794 17.2083 167.194 17.6077 167.487 18.1437C167.78 18.6797 167.927 19.3319 167.927 20.1005V25H166.562V20.2977C166.562 19.4684 166.354 18.8364 165.94 18.4016C165.535 17.9566 164.984 17.7341 164.286 17.7341C163.568 17.7341 162.997 17.9667 162.572 18.4319C162.147 18.887 161.935 19.5493 161.935 20.419V25H160.57V20.2977C160.57 19.4684 160.363 18.8364 159.948 18.4016C159.543 17.9566 158.992 17.7341 158.295 17.7341C157.577 17.7341 157.005 17.9667 156.581 18.4319C156.156 18.887 155.943 19.5493 155.943 20.419V25H154.563V16.6875H155.943V17.8858C156.216 17.451 156.581 17.1173 157.036 16.8847C157.501 16.6521 158.011 16.5358 158.568 16.5358C159.265 16.5358 159.882 16.6925 160.418 17.006C160.954 17.3195 161.354 17.7796 161.617 18.3864C161.849 17.7999 162.233 17.3448 162.769 17.0212C163.305 16.6976 163.902 16.5358 164.559 16.5358ZM177.776 20.5252C177.776 20.7881 177.76 21.0662 177.73 21.3595H171.086C171.137 22.1786 171.415 22.8207 171.92 23.2859C172.436 23.741 173.058 23.9685 173.786 23.9685C174.383 23.9685 174.878 23.832 175.273 23.559C175.677 23.2758 175.96 22.9016 176.122 22.4365H177.609C177.386 23.2354 176.941 23.8876 176.274 24.3932C175.606 24.8888 174.777 25.1365 173.786 25.1365C172.997 25.1365 172.289 24.9595 171.662 24.6056C171.046 24.2517 170.56 23.7511 170.206 23.1039C169.852 22.4466 169.675 21.6881 169.675 20.8286C169.675 19.969 169.847 19.2156 170.191 18.5684C170.535 17.9212 171.015 17.4257 171.632 17.0819C172.259 16.7279 172.977 16.551 173.786 16.551C174.575 16.551 175.273 16.7229 175.879 17.0667C176.486 17.4105 176.951 17.8858 177.275 18.4926C177.609 19.0892 177.776 19.7668 177.776 20.5252ZM176.35 20.237C176.35 19.7111 176.233 19.2611 176.001 18.887C175.768 18.5027 175.45 18.2145 175.045 18.0223C174.651 17.8201 174.211 17.719 173.725 17.719C173.028 17.719 172.431 17.9414 171.936 18.3864C171.45 18.8313 171.172 19.4482 171.101 20.237H176.35ZM181.281 17.8251V22.7247C181.281 23.1292 181.367 23.4174 181.539 23.5893C181.711 23.7511 182.009 23.832 182.434 23.832H183.45V25H182.207C181.438 25 180.862 24.823 180.477 24.4691C180.093 24.1152 179.901 23.5337 179.901 22.7247V17.8251H178.824V16.6875H179.901V14.5942H181.281V16.6875H183.45V17.8251H181.281ZM189.249 16.5358C189.876 16.5358 190.442 16.6723 190.948 16.9454C191.453 17.2083 191.848 17.6077 192.131 18.1437C192.424 18.6797 192.571 19.3319 192.571 20.1005V25H191.206V20.2977C191.206 19.4684 190.998 18.8364 190.584 18.4016C190.169 17.9566 189.603 17.7341 188.885 17.7341C188.157 17.7341 187.575 17.9617 187.14 18.4167C186.716 18.8718 186.503 19.5342 186.503 20.4038V25H185.123V13.7751H186.503V17.8707C186.776 17.4459 187.15 17.1173 187.626 16.8847C188.111 16.6521 188.652 16.5358 189.249 16.5358ZM195.539 15.3375C195.276 15.3375 195.053 15.2464 194.871 15.0644C194.689 14.8824 194.598 14.6599 194.598 14.397C194.598 14.1341 194.689 13.9116 194.871 13.7296C195.053 13.5475 195.276 13.4565 195.539 13.4565C195.791 13.4565 196.004 13.5475 196.176 13.7296C196.358 13.9116 196.449 14.1341 196.449 14.397C196.449 14.6599 196.358 14.8824 196.176 15.0644C196.004 15.2464 195.791 15.3375 195.539 15.3375ZM196.206 16.6875V25H194.826V16.6875H196.206ZM202.609 16.5358C203.62 16.5358 204.439 16.8442 205.066 17.4611C205.693 18.0678 206.006 18.9476 206.006 20.1005V25H204.641V20.2977C204.641 19.4684 204.434 18.8364 204.019 18.4016C203.605 17.9566 203.038 17.7341 202.32 17.7341C201.592 17.7341 201.011 17.9617 200.576 18.4167C200.151 18.8718 199.939 19.5342 199.939 20.4038V25H198.559V16.6875H199.939V17.8707C200.212 17.4459 200.581 17.1173 201.046 16.8847C201.522 16.6521 202.042 16.5358 202.609 16.5358ZM211.689 16.551C212.407 16.551 213.034 16.7077 213.57 17.0212C214.116 17.3347 214.521 17.7291 214.784 18.2044V16.6875H216.179V25.182C216.179 25.9405 216.018 26.613 215.694 27.1995C215.37 27.7961 214.905 28.2613 214.298 28.595C213.702 28.9287 213.004 29.0956 212.205 29.0956C211.113 29.0956 210.203 28.8377 209.475 28.322C208.747 27.8062 208.317 27.1034 208.185 26.2135H209.551C209.702 26.7191 210.016 27.1236 210.491 27.427C210.966 27.7405 211.538 27.8972 212.205 27.8972C212.964 27.8972 213.58 27.6596 214.056 27.1843C214.541 26.709 214.784 26.0416 214.784 25.182V23.4376C214.511 23.923 214.106 24.3275 213.57 24.6511C213.034 24.9747 212.407 25.1365 211.689 25.1365C210.951 25.1365 210.279 24.9545 209.672 24.5904C209.075 24.2264 208.605 23.7157 208.261 23.0584C207.917 22.4011 207.746 21.6527 207.746 20.8134C207.746 19.964 207.917 19.2207 208.261 18.5836C208.605 17.9364 209.075 17.4358 209.672 17.0819C210.279 16.7279 210.951 16.551 211.689 16.551ZM214.784 20.8286C214.784 20.2016 214.657 19.6555 214.405 19.1903C214.152 18.7252 213.808 18.3712 213.373 18.1285C212.948 17.8757 212.478 17.7493 211.962 17.7493C211.447 17.7493 210.977 17.8707 210.552 18.1134C210.127 18.3561 209.788 18.71 209.535 19.1752C209.283 19.6403 209.156 20.1864 209.156 20.8134C209.156 21.4505 209.283 22.0067 209.535 22.482C209.788 22.9472 210.127 23.3061 210.552 23.559C210.977 23.8017 211.447 23.923 211.962 23.923C212.478 23.923 212.948 23.8017 213.373 23.559C213.808 23.3061 214.152 22.9472 214.405 22.482C214.657 22.0067 214.784 21.4556 214.784 20.8286ZM218.952 25.091C218.689 25.091 218.467 25 218.285 24.818C218.103 24.6359 218.012 24.4135 218.012 24.1505C218.012 23.8876 218.103 23.6651 218.285 23.4831C218.467 23.3011 218.689 23.2101 218.952 23.2101C219.205 23.2101 219.417 23.3011 219.589 23.4831C219.771 23.6651 219.862 23.8876 219.862 24.1505C219.862 24.4135 219.771 24.6359 219.589 24.818C219.417 25 219.205 25.091 218.952 25.091ZM222.137 25.091C221.874 25.091 221.651 25 221.469 24.818C221.287 24.6359 221.196 24.4135 221.196 24.1505C221.196 23.8876 221.287 23.6651 221.469 23.4831C221.651 23.3011 221.874 23.2101 222.137 23.2101C222.39 23.2101 222.602 23.3011 222.774 23.4831C222.956 23.6651 223.047 23.8876 223.047 24.1505C223.047 24.4135 222.956 24.6359 222.774 24.818C222.602 25 222.39 25.091 222.137 25.091ZM225.322 25.091C225.059 25.091 224.836 25 224.654 24.818C224.472 24.6359 224.381 24.4135 224.381 24.1505C224.381 23.8876 224.472 23.6651 224.654 23.4831C224.836 23.3011 225.059 23.2101 225.322 23.2101C225.575 23.2101 225.787 23.3011 225.959 23.4831C226.141 23.6651 226.232 23.8876 226.232 24.1505C226.232 24.4135 226.141 24.6359 225.959 24.818C225.787 25 225.575 25.091 225.322 25.091Z" fill="black"/>
<path d="M45.0639 14.2462V12.5922H48.8103V27H46.977V14.2462H45.0639ZM51.9253 19.6467C51.9253 17.3616 52.2972 15.5814 53.0412 14.306C53.7852 13.0174 55.0871 12.373 56.9471 12.373C58.7937 12.373 60.089 13.0174 60.833 14.306C61.5769 15.5814 61.9489 17.3616 61.9489 19.6467C61.9489 21.9716 61.5769 23.7783 60.833 25.067C60.089 26.3557 58.7937 27 56.9471 27C55.0871 27 53.7852 26.3557 53.0412 25.067C52.2972 23.7783 51.9253 21.9716 51.9253 19.6467ZM60.1554 19.6467C60.1554 18.4909 60.0757 17.5144 59.9163 16.7173C59.7701 15.9069 59.4579 15.2559 58.9797 14.7644C58.5147 14.2728 57.8372 14.027 56.9471 14.027C56.0437 14.027 55.3528 14.2728 54.8746 14.7644C54.4096 15.2559 54.0974 15.9069 53.938 16.7173C53.7918 17.5144 53.7188 18.4909 53.7188 19.6467C53.7188 20.8423 53.7918 21.8454 53.938 22.6558C54.0974 23.4661 54.4096 24.1171 54.8746 24.6087C55.3528 25.1002 56.0437 25.346 56.9471 25.346C57.8372 25.346 58.5147 25.1002 58.9797 24.6087C59.4579 24.1171 59.7701 23.4661 59.9163 22.6558C60.0757 21.8454 60.1554 20.8423 60.1554 19.6467ZM63.9602 14.2462V12.5922H67.7066V27H65.8733V14.2462H63.9602Z" fill="black"/>
<path d="M19.6357 28.0201H15V16.3518H19.6357V28.0201ZM35.9671 19.8406C35.1726 19.7288 35.4313 19.1269 35.9959 18.9441C36.4789 18.7885 37.2512 18.4579 37.2512 17.4758C37.2512 16.8224 36.7877 15.957 35.1457 16.027C34.0072 16.0756 31.7468 15.8345 30.5295 15.1665C31.3695 11.6115 31.1674 6.62817 28.9645 6.62817C27.4866 6.62817 27.2067 8.38523 26.7626 10.0013C25.6305 14.126 23.6919 15.852 21.4899 16.696V27.2733C25.5526 27.955 27.3726 29.9648 31.2295 29.9648C34.1945 29.9648 35.7279 28.2778 35.7279 27.3725C35.7279 27.0468 35.4758 26.8153 34.8379 26.7638C34.086 26.7035 34.1574 25.9743 34.8666 25.8372C36.0422 25.6096 36.5596 24.9484 36.5596 24.3368C36.5596 23.8224 36.1924 23.343 35.5416 23.1884C34.7656 23.0047 34.926 22.4524 35.5703 22.3989C36.6208 22.3114 37.1353 21.656 37.1353 21.0279C37.1353 20.4785 36.7422 19.9495 35.9671 19.8406V19.8406Z" fill="black"/>
</svg>
