<svg width="382" height="56" viewBox="0 0 382 56" fill="none" xmlns="http://www.w3.org/2000/svg">
<path d="M34.8882 34.6868C34.8874 34.686 34.8866 34.6851 34.8858 34.6843L20.2598 19.973C19.6364 19.3456 18.8075 19 17.9259 19C17.0442 19 16.2153 19.3453 15.5916 19.9727L0.973332 34.6766C0.968408 34.6816 0.963485 34.6868 0.958561 34.6917C-0.321659 35.9869 -0.319471 38.0883 0.964852 39.3802C1.55162 39.9707 2.32659 40.3127 3.15518 40.3484C3.18882 40.3517 3.22274 40.3534 3.25694 40.3534H3.83988V51.1801C3.83988 53.3224 5.57282 55.0656 7.70324 55.0656H13.4254C14.0053 55.0656 14.4758 54.5926 14.4758 54.009V45.5209C14.4758 44.5432 15.2664 43.748 16.2383 43.748H19.6134C20.5853 43.748 21.3759 44.5432 21.3759 45.5209V54.009C21.3759 54.5926 21.8461 55.0656 22.4263 55.0656H28.1485C30.2789 55.0656 32.0118 53.3224 32.0118 51.1801V40.3534H32.5524C33.4338 40.3534 34.2626 40.0081 34.8866 39.3807C36.1723 38.0866 36.1728 35.9817 34.8882 34.6868Z" fill="#F56920"/>
<path d="M98.6964 48.4998C101.722 48.4998 104.517 47.5723 106.851 46.0071L115.295 54.4999C115.958 55.1666 117.053 55.1666 117.744 54.4999L119.387 52.8477C120.049 52.181 120.049 51.0796 119.387 50.3839L110.915 41.9201C112.47 39.5722 113.393 36.7606 113.393 33.7171C113.393 25.5721 106.794 18.9343 98.6964 18.9343C90.599 18.9343 84 25.5721 84 33.7171C84 41.8618 90.5702 48.4998 98.6964 48.4998ZM98.6964 24.7315C103.624 24.7315 107.63 28.7605 107.63 33.7171C107.63 38.6737 103.624 42.7027 98.6964 42.7027C93.7688 42.7027 89.7633 38.6737 89.7633 33.7171C89.7633 28.7605 93.7688 24.7315 98.6964 24.7315Z" fill="#F56920"/>
<ellipse cx="191" cy="25.1469" rx="25" ry="25.1469" fill="#F56920"/>
<path d="M180.292 12.175C180.292 12.5754 179.967 12.9 179.567 12.9H176.642C176.241 12.9 175.917 12.5754 175.917 12.175V12.175C175.917 11.7746 176.241 11.45 176.642 11.45H179.567C179.967 11.45 180.292 11.7746 180.292 12.175V12.175ZM191.958 21.6C189.546 21.6 187.583 23.5517 187.583 25.95C187.583 28.3483 189.546 30.3 191.958 30.3C194.371 30.3 196.333 28.3483 196.333 25.95C196.333 23.5517 194.371 21.6 191.958 21.6ZM206 14.35C207.105 14.35 208 15.2454 208 16.35V37C208 38.1046 207.105 39 206 39H175C173.896 39 173 38.1046 173 37V16.35C173 15.2454 173.896 14.35 175 14.35H181.648C182.624 14.35 183.534 13.8657 184.075 13.0581L185.531 10.8862C185.902 10.3323 186.525 10 187.192 10H196.725C197.392 10 198.015 10.3323 198.386 10.8862L199.842 13.0581C200.383 13.8657 201.293 14.35 202.269 14.35H206ZM180.292 20.15C180.292 19.3496 179.64 18.7 178.833 18.7C178.027 18.7 177.375 19.3496 177.375 20.15C177.375 20.9504 178.027 21.6 178.833 21.6C179.64 21.6 180.292 20.9504 180.292 20.15ZM199.25 25.95C199.25 21.9466 195.985 18.7 191.958 18.7C187.932 18.7 184.667 21.9466 184.667 25.95C184.667 29.9535 187.932 33.2 191.958 33.2C195.985 33.2 199.25 29.9535 199.25 25.95Z" fill="#FAFAFA"/>
<path d="M378.554 32.5153H377.793C377.546 31.7369 377.234 30.9808 376.86 30.2543L377.399 29.7121C378.706 28.3987 378.671 26.294 377.399 25.0162L375.809 23.4165C374.539 22.1378 372.447 22.1007 371.141 23.416L370.601 23.9586C369.879 23.5828 369.127 23.2689 368.353 23.0202V22.2544C368.353 20.4237 366.873 18.9343 365.053 18.9343H362.802C360.982 18.9343 359.502 20.4237 359.502 22.2544V23.0202C358.728 23.2688 357.976 23.5827 357.254 23.9586L356.715 23.4165C355.411 22.1038 353.319 22.1346 352.046 23.416L350.456 25.0158C349.185 26.293 349.148 28.3979 350.455 29.7117L350.995 30.2544C350.621 30.9809 350.309 31.7369 350.062 32.5153H349.301C347.481 32.5153 346 34.0047 346 35.8353V38.0989C346 39.9296 347.481 41.419 349.301 41.419H350.062C350.309 42.1973 350.621 42.9534 350.995 43.6799L350.456 44.2221C349.149 45.5355 349.184 47.6403 350.455 48.9181L352.046 50.5178C353.315 51.7965 355.408 51.8335 356.714 50.5183L357.254 49.9756C357.976 50.3515 358.728 50.6653 359.502 50.9141V51.6798C359.502 53.5105 360.982 54.9999 362.802 54.9999H365.053C366.873 54.9999 368.353 53.5105 368.353 51.6798V50.9141C369.127 50.6654 369.879 50.3515 370.601 49.9756L371.14 50.5178C372.444 51.8304 374.536 51.7996 375.809 50.5182L377.399 48.9183C378.67 47.6411 378.707 45.5362 377.4 44.2224L376.86 43.6797C377.234 42.9533 377.546 42.1973 377.793 41.4188H378.554C380.374 41.4188 381.855 39.9294 381.855 38.0987V35.8352C381.855 34.0047 380.374 32.5153 378.554 32.5153V32.5153ZM363.927 44.8142C359.626 44.8142 356.126 41.294 356.126 36.9671C356.126 32.6402 359.626 29.12 363.927 29.12C368.229 29.12 371.729 32.6402 371.729 36.9671C371.729 41.294 368.229 44.8142 363.927 44.8142Z" fill="#F56920"/>
<path d="M279.112 29.0733L280.563 34.7917L284.89 23.3567L273.333 27.645L279.112 29.0733ZM280 15C272.637 15 266.667 20.7983 266.667 27.95C266.667 35.2133 272.5 40.1783 280 46.6667C287.5 40.1783 293.333 35.2133 293.333 27.95C293.333 20.7983 287.363 15 280 15ZM280 37.8717C274.598 37.8717 270.223 33.5383 270.223 28.195C270.223 22.8517 274.598 18.5183 280 18.5183C285.402 18.5183 289.777 22.8517 289.777 28.195C289.777 33.5383 285.402 37.8717 280 37.8717ZM293.333 41.6667H290.332C289.283 42.7883 288.138 43.8917 286.93 45H291.272L292.105 46.6667H285.075L283.165 48.3333H284.873L286.303 51.6667H273.825L275.255 48.3333H276.833C276.185 47.7733 275.547 47.2183 274.922 46.6667H271.597L269.912 45H273.07C271.862 43.8933 270.72 42.7883 269.672 41.6667H266.667L260 55H300L293.333 41.6667ZM272.01 51.6667H265.393L268.333 45.7867L270.86 48.3333H273.442L272.01 51.6667ZM286.69 48.3333H292.94L294.607 51.6667H288.12L286.69 48.3333Z" fill="#F56920"/>
</svg>
