<svg width="30" height="31" viewBox="0 0 30 31" fill="none" xmlns="http://www.w3.org/2000/svg">
<path d="M12.2867 24.7178C14.8163 24.7178 17.1532 23.9423 19.1046 22.6337L26.1634 29.734C26.7178 30.2914 27.6332 30.2914 28.2112 29.734L29.5844 28.3527C30.1385 27.7954 30.1385 26.8745 29.5844 26.2929L22.5015 19.2168C23.8022 17.254 24.5734 14.9033 24.5734 12.3589C24.5734 5.54938 19.0564 0 12.2867 0C5.51696 0 0 5.54938 0 12.3589C0 19.1681 5.49287 24.7178 12.2867 24.7178ZM12.2867 4.84662C16.4063 4.84662 19.7551 8.21502 19.7551 12.3589C19.7551 16.5027 16.4063 19.8711 12.2867 19.8711C8.16703 19.8711 4.81831 16.5027 4.81831 12.3589C4.81831 8.21502 8.16703 4.84662 12.2867 4.84662Z" fill="#F56920"/>
</svg>
