<svg width="405" height="314" viewBox="0 0 405 314" fill="none" xmlns="http://www.w3.org/2000/svg">
<path d="M0 23.4741C0 21.1607 1.87534 19.2854 4.1887 19.2854V19.2854C6.25443 19.2854 7.98426 20.8178 8.50446 22.8169C15.0847 48.1052 45.9495 43.4982 49.7573 22.7307C50.1051 20.8337 51.656 19.2854 53.5847 19.2854V19.2854H383.612C394.658 19.2854 403.612 28.2397 403.612 39.2854V294C403.612 305.046 394.658 314 383.612 314H20C8.9543 314 0 305.046 0 294V23.4741Z" fill="#1B1B1E"/>
<ellipse cx="28.9532" cy="19.2853" rx="17.7174" ry="17.2853" fill="#2F4858"/>
<g filter="url(#filter0_d)">
<rect x="303" y="5" width="95" height="28" rx="14" fill="#FAFAFA"/>
</g>
<path d="M316.139 23.0171V24H308.599V23.2168L313.068 18.8399C313.631 18.2871 314.01 17.811 314.204 17.4117C314.409 17.0022 314.512 16.5926 314.512 16.1831C314.512 15.5483 314.291 15.0569 313.851 14.7088C313.421 14.3505 312.802 14.1713 311.993 14.1713C310.734 14.1713 309.756 14.5706 309.06 15.3692L308.276 14.6935C308.696 14.202 309.229 13.8232 309.874 13.557C310.529 13.2908 311.266 13.1577 312.085 13.1577C313.181 13.1577 314.046 13.4188 314.68 13.9409C315.325 14.4529 315.648 15.1593 315.648 16.0603C315.648 16.6131 315.525 17.1455 315.279 17.6574C315.034 18.1693 314.568 18.758 313.882 19.4235L310.227 23.0171H316.139ZM322.212 24.0921C321.383 24.0921 320.641 23.872 319.986 23.4318C319.341 22.9915 318.834 22.3619 318.465 21.5428C318.107 20.7135 317.928 19.7409 317.928 18.6249C317.928 17.509 318.107 16.5415 318.465 15.7224C318.834 14.8931 319.341 14.2583 319.986 13.8181C320.641 13.3778 321.383 13.1577 322.212 13.1577C323.042 13.1577 323.779 13.3778 324.424 13.8181C325.079 14.2583 325.591 14.8931 325.96 15.7224C326.328 16.5415 326.513 17.509 326.513 18.6249C326.513 19.7409 326.328 20.7135 325.96 21.5428C325.591 22.3619 325.079 22.9915 324.424 23.4318C323.779 23.872 323.042 24.0921 322.212 24.0921ZM322.212 23.0786C322.837 23.0786 323.385 22.9045 323.856 22.5564C324.337 22.2083 324.711 21.7015 324.977 21.036C325.243 20.3705 325.376 19.5668 325.376 18.6249C325.376 17.683 325.243 16.8793 324.977 16.2138C324.711 15.5483 324.337 15.0416 323.856 14.6935C323.385 14.3454 322.837 14.1713 322.212 14.1713C321.588 14.1713 321.035 14.3454 320.554 14.6935C320.083 15.0416 319.714 15.5483 319.448 16.2138C319.182 16.8793 319.049 17.683 319.049 18.6249C319.049 19.5668 319.182 20.3705 319.448 21.036C319.714 21.7015 320.083 22.2083 320.554 22.5564C321.035 22.9045 321.588 23.0786 322.212 23.0786ZM337.06 24.0768C336.282 24.0768 335.581 23.9027 334.956 23.5546C334.332 23.1963 333.84 22.7049 333.482 22.0803C333.124 21.4558 332.945 20.7494 332.945 19.961C332.945 19.1727 333.124 18.4662 333.482 17.8417C333.84 17.2172 334.332 16.7309 334.956 16.3828C335.581 16.0347 336.282 15.8606 337.06 15.8606C337.839 15.8606 338.54 16.0347 339.164 16.3828C339.789 16.7309 340.275 17.2172 340.623 17.8417C340.982 18.4662 341.161 19.1727 341.161 19.961C341.161 20.7494 340.982 21.4558 340.623 22.0803C340.275 22.7049 339.789 23.1963 339.164 23.5546C338.54 23.9027 337.839 24.0768 337.06 24.0768ZM337.06 23.1093C337.634 23.1093 338.146 22.9813 338.596 22.7253C339.057 22.4591 339.415 22.0855 339.671 21.6043C339.927 21.1231 340.055 20.5753 340.055 19.961C340.055 19.3467 339.927 18.799 339.671 18.3178C339.415 17.8366 339.057 17.468 338.596 17.2121C338.146 16.9459 337.634 16.8128 337.06 16.8128C336.487 16.8128 335.97 16.9459 335.509 17.2121C335.059 17.468 334.7 17.8366 334.434 18.3178C334.178 18.799 334.05 19.3467 334.05 19.961C334.05 20.5753 334.178 21.1231 334.434 21.6043C334.7 22.0855 335.059 22.4591 335.509 22.7253C335.97 22.9813 336.487 23.1093 337.06 23.1093ZM347.196 24.0768C346.397 24.0768 345.68 23.9027 345.046 23.5546C344.421 23.2065 343.93 22.7202 343.571 22.0957C343.213 21.4609 343.034 20.7494 343.034 19.961C343.034 19.1727 343.213 18.4662 343.571 17.8417C343.93 17.2172 344.421 16.7309 345.046 16.3828C345.68 16.0347 346.397 15.8606 347.196 15.8606C347.892 15.8606 348.511 15.9988 349.054 16.2753C349.607 16.5415 350.042 16.9356 350.359 17.4578L349.545 18.0106C349.279 17.6113 348.941 17.3144 348.532 17.1199C348.122 16.9151 347.677 16.8128 347.196 16.8128C346.612 16.8128 346.085 16.9459 345.614 17.2121C345.153 17.468 344.79 17.8366 344.523 18.3178C344.267 18.799 344.139 19.3467 344.139 19.961C344.139 20.5856 344.267 21.1384 344.523 21.6196C344.79 22.0906 345.153 22.4591 345.614 22.7253C346.085 22.9813 346.612 23.1093 347.196 23.1093C347.677 23.1093 348.122 23.012 348.532 22.8175C348.941 22.623 349.279 22.3261 349.545 21.9268L350.359 22.4796C350.042 23.0018 349.607 23.4011 349.054 23.6775C348.501 23.9437 347.881 24.0768 347.196 24.0768ZM357.306 23.5086C357.101 23.6929 356.845 23.8362 356.538 23.9386C356.241 24.0307 355.929 24.0768 355.601 24.0768C354.844 24.0768 354.26 23.872 353.85 23.4625C353.441 23.053 353.236 22.4745 353.236 21.7271V16.8435H351.793V15.922H353.236V14.1559H354.326V15.922H356.784V16.8435H354.326V21.6657C354.326 22.1469 354.444 22.5155 354.68 22.7714C354.925 23.0171 355.274 23.14 355.724 23.14C355.949 23.14 356.164 23.1042 356.369 23.0325C356.584 22.9608 356.768 22.8584 356.922 22.7253L357.306 23.5086ZM362.768 24.0768C361.99 24.0768 361.289 23.9027 360.664 23.5546C360.04 23.1963 359.548 22.7049 359.19 22.0803C358.832 21.4558 358.653 20.7494 358.653 19.961C358.653 19.1727 358.832 18.4662 359.19 17.8417C359.548 17.2172 360.04 16.7309 360.664 16.3828C361.289 16.0347 361.99 15.8606 362.768 15.8606C363.546 15.8606 364.248 16.0347 364.872 16.3828C365.497 16.7309 365.983 17.2172 366.331 17.8417C366.69 18.4662 366.869 19.1727 366.869 19.961C366.869 20.7494 366.69 21.4558 366.331 22.0803C365.983 22.7049 365.497 23.1963 364.872 23.5546C364.248 23.9027 363.546 24.0768 362.768 24.0768ZM362.768 23.1093C363.342 23.1093 363.854 22.9813 364.304 22.7253C364.765 22.4591 365.123 22.0855 365.379 21.6043C365.635 21.1231 365.763 20.5753 365.763 19.961C365.763 19.3467 365.635 18.799 365.379 18.3178C365.123 17.8366 364.765 17.468 364.304 17.2121C363.854 16.9459 363.342 16.8128 362.768 16.8128C362.195 16.8128 361.678 16.9459 361.217 17.2121C360.767 17.468 360.408 17.8366 360.142 18.3178C359.886 18.799 359.758 19.3467 359.758 19.961C359.758 20.5753 359.886 21.1231 360.142 21.6043C360.408 22.0855 360.767 22.4591 361.217 22.7253C361.678 22.9813 362.195 23.1093 362.768 23.1093ZM373.717 15.8606C374.475 15.8606 375.161 16.0347 375.775 16.3828C376.39 16.7206 376.871 17.2018 377.219 17.8263C377.567 18.4509 377.741 19.1624 377.741 19.961C377.741 20.7596 377.567 21.4712 377.219 22.0957C376.871 22.7202 376.39 23.2065 375.775 23.5546C375.161 23.9027 374.475 24.0768 373.717 24.0768C373.042 24.0768 372.433 23.9335 371.89 23.6468C371.357 23.3601 370.927 22.9455 370.6 22.4028V24H369.556V12.6049H370.646V17.4578C370.984 16.9356 371.414 16.5415 371.936 16.2753C372.468 15.9988 373.062 15.8606 373.717 15.8606ZM373.641 23.1093C374.204 23.1093 374.716 22.9813 375.176 22.7253C375.637 22.4591 375.995 22.0855 376.251 21.6043C376.518 21.1231 376.651 20.5753 376.651 19.961C376.651 19.3467 376.518 18.799 376.251 18.3178C375.995 17.8366 375.637 17.468 375.176 17.2121C374.716 16.9459 374.204 16.8128 373.641 16.8128C373.067 16.8128 372.55 16.9459 372.09 17.2121C371.639 17.468 371.281 17.8366 371.015 18.3178C370.759 18.799 370.631 19.3467 370.631 19.961C370.631 20.5753 370.759 21.1231 371.015 21.6043C371.281 22.0855 371.639 22.4591 372.09 22.7253C372.55 22.9813 373.067 23.1093 373.641 23.1093ZM386.997 20.2989H380.24C380.302 21.1384 380.624 21.8193 381.208 22.3414C381.791 22.8533 382.528 23.1093 383.419 23.1093C383.921 23.1093 384.382 23.0222 384.801 22.8482C385.221 22.6639 385.585 22.3977 385.892 22.0496L386.506 22.7561C386.148 23.1861 385.697 23.5137 385.155 23.7389C384.622 23.9642 384.033 24.0768 383.388 24.0768C382.559 24.0768 381.822 23.9027 381.177 23.5546C380.542 23.1963 380.046 22.7049 379.687 22.0803C379.329 21.4558 379.15 20.7494 379.15 19.961C379.15 19.1727 379.319 18.4662 379.657 17.8417C380.005 17.2172 380.476 16.7309 381.069 16.3828C381.674 16.0347 382.349 15.8606 383.097 15.8606C383.844 15.8606 384.515 16.0347 385.108 16.3828C385.702 16.7309 386.168 17.2172 386.506 17.8417C386.844 18.456 387.013 19.1624 387.013 19.961L386.997 20.2989ZM383.097 16.7974C382.319 16.7974 381.663 17.0482 381.131 17.5499C380.609 18.0414 380.312 18.6864 380.24 19.4849H385.968C385.897 18.6864 385.595 18.0414 385.062 17.5499C384.54 17.0482 383.885 16.7974 383.097 16.7974ZM390.737 17.5038C390.993 16.9612 391.372 16.5517 391.874 16.2753C392.386 15.9988 393.015 15.8606 393.763 15.8606V16.9203L393.502 16.9049C392.652 16.9049 391.986 17.166 391.505 17.6881C391.024 18.2103 390.783 18.9423 390.783 19.8842V24H389.693V15.922H390.737V17.5038Z" fill="#1B1B1E"/>
<g filter="url(#filter1_d)">
<rect x="55.3132" y="3.72852" width="86.6593" height="28.5208" rx="14.2604" fill="#FAFAFA"/>
</g>
<path d="M71.8919 11.6049V23H70.8476V21.4028C70.52 21.9455 70.0849 22.3601 69.5422 22.6468C69.0098 22.9335 68.4058 23.0768 67.7301 23.0768C66.9724 23.0768 66.2865 22.9027 65.6722 22.5546C65.0579 22.2065 64.5767 21.7202 64.2286 21.0957C63.8805 20.4712 63.7064 19.7596 63.7064 18.961C63.7064 18.1624 63.8805 17.4509 64.2286 16.8263C64.5767 16.2018 65.0579 15.7206 65.6722 15.3828C66.2865 15.0347 66.9724 14.8606 67.7301 14.8606C68.3853 14.8606 68.974 14.9988 69.4962 15.2753C70.0285 15.5415 70.4637 15.9356 70.8015 16.4578V11.6049H71.8919ZM67.8222 22.1093C68.3853 22.1093 68.8921 21.9813 69.3426 21.7253C69.8033 21.4591 70.1616 21.0855 70.4176 20.6043C70.6838 20.1231 70.8169 19.5753 70.8169 18.961C70.8169 18.3467 70.6838 17.799 70.4176 17.3178C70.1616 16.8366 69.8033 16.468 69.3426 16.2121C68.8921 15.9459 68.3853 15.8128 67.8222 15.8128C67.2489 15.8128 66.7318 15.9459 66.2711 16.2121C65.8206 16.468 65.4623 16.8366 65.1961 17.3178C64.9401 17.799 64.8122 18.3467 64.8122 18.961C64.8122 19.5753 64.9401 20.1231 65.1961 20.6043C65.4623 21.0855 65.8206 21.4591 66.2711 21.7253C66.7318 21.9813 67.2489 22.1093 67.8222 22.1093ZM78.6911 23.0768C77.913 23.0768 77.2117 22.9027 76.5872 22.5546C75.9626 22.1963 75.4712 21.7049 75.1129 21.0803C74.7545 20.4558 74.5754 19.7494 74.5754 18.961C74.5754 18.1727 74.7545 17.4662 75.1129 16.8417C75.4712 16.2172 75.9626 15.7309 76.5872 15.3828C77.2117 15.0347 77.913 14.8606 78.6911 14.8606C79.4692 14.8606 80.1705 15.0347 80.7951 15.3828C81.4196 15.7309 81.9059 16.2172 82.254 16.8417C82.6124 17.4662 82.7915 18.1727 82.7915 18.961C82.7915 19.7494 82.6124 20.4558 82.254 21.0803C81.9059 21.7049 81.4196 22.1963 80.7951 22.5546C80.1705 22.9027 79.4692 23.0768 78.6911 23.0768ZM78.6911 22.1093C79.2645 22.1093 79.7764 21.9813 80.2269 21.7253C80.6876 21.4591 81.0459 21.0855 81.3019 20.6043C81.5578 20.1231 81.6858 19.5753 81.6858 18.961C81.6858 18.3467 81.5578 17.799 81.3019 17.3178C81.0459 16.8366 80.6876 16.468 80.2269 16.2121C79.7764 15.9459 79.2645 15.8128 78.6911 15.8128C78.1178 15.8128 77.6008 15.9459 77.14 16.2121C76.6895 16.468 76.3312 16.8366 76.065 17.3178C75.8091 17.799 75.6811 18.3467 75.6811 18.961C75.6811 19.5753 75.8091 20.1231 76.065 20.6043C76.3312 21.0855 76.6895 21.4591 77.14 21.7253C77.6008 21.9813 78.1178 22.1093 78.6911 22.1093ZM92.512 19.2989H85.7548C85.8162 20.1384 86.1387 20.8193 86.7223 21.3414C87.3059 21.8533 88.043 22.1093 88.9337 22.1093C89.4354 22.1093 89.8961 22.0222 90.3159 21.8482C90.7357 21.6639 91.0991 21.3977 91.4063 21.0496L92.0206 21.7561C91.6622 22.1861 91.2118 22.5137 90.6691 22.7389C90.1367 22.9642 89.548 23.0768 88.903 23.0768C88.0737 23.0768 87.3366 22.9027 86.6916 22.5546C86.0568 22.1963 85.5603 21.7049 85.2019 21.0803C84.8436 20.4558 84.6644 19.7494 84.6644 18.961C84.6644 18.1727 84.8333 17.4662 85.1712 16.8417C85.5193 16.2172 85.9903 15.7309 86.5841 15.3828C87.1881 15.0347 87.8639 14.8606 88.6112 14.8606C89.3586 14.8606 90.0292 15.0347 90.6231 15.3828C91.2169 15.7309 91.6827 16.2172 92.0206 16.8417C92.3584 17.456 92.5274 18.1624 92.5274 18.961L92.512 19.2989ZM88.6112 15.7974C87.8331 15.7974 87.1779 16.0482 86.6455 16.5499C86.1234 17.0414 85.8264 17.6864 85.7548 18.4849H91.4831C91.4114 17.6864 91.1094 17.0414 90.577 16.5499C90.0548 16.0482 89.3996 15.7974 88.6112 15.7974ZM95.315 23.0768C95.0897 23.0768 94.8952 22.9949 94.7314 22.8311C94.5778 22.6673 94.501 22.4676 94.501 22.2321C94.501 21.9967 94.5778 21.8021 94.7314 21.6486C94.8952 21.4847 95.0897 21.4028 95.315 21.4028C95.5402 21.4028 95.7347 21.4847 95.8985 21.6486C96.0624 21.8021 96.1443 21.9967 96.1443 22.2321C96.1443 22.4676 96.0624 22.6673 95.8985 22.8311C95.7347 22.9949 95.5402 23.0768 95.315 23.0768ZM97.8747 26.0561C97.5369 26.0561 97.2195 26.01 96.9226 25.9179C96.6154 25.836 96.3646 25.708 96.1701 25.534L96.554 24.7047C96.8714 24.9811 97.2911 25.1193 97.8133 25.1193C98.2433 25.1193 98.5709 24.9913 98.7962 24.7354C99.0316 24.4794 99.1494 24.1006 99.1494 23.5989V14.922H100.24V23.5989C100.24 24.3566 100.035 24.9555 99.6255 25.3957C99.2159 25.836 98.6323 26.0561 97.8747 26.0561ZM99.7022 13.1406C99.477 13.1406 99.2876 13.0638 99.134 12.9102C98.9804 12.7567 98.9037 12.5724 98.9037 12.3574C98.9037 12.1526 98.9804 11.9734 99.134 11.8199C99.2876 11.6663 99.477 11.5895 99.7022 11.5895C99.9275 11.5895 100.117 11.6663 100.27 11.8199C100.424 11.9632 100.501 12.1372 100.501 12.342C100.501 12.5672 100.424 12.7567 100.27 12.9102C100.117 13.0638 99.9275 13.1406 99.7022 13.1406ZM107.049 23.0768C106.271 23.0768 105.57 22.9027 104.945 22.5546C104.321 22.1963 103.829 21.7049 103.471 21.0803C103.113 20.4558 102.934 19.7494 102.934 18.961C102.934 18.1727 103.113 17.4662 103.471 16.8417C103.829 16.2172 104.321 15.7309 104.945 15.3828C105.57 15.0347 106.271 14.8606 107.049 14.8606C107.828 14.8606 108.529 15.0347 109.153 15.3828C109.778 15.7309 110.264 16.2172 110.612 16.8417C110.971 17.4662 111.15 18.1727 111.15 18.961C111.15 19.7494 110.971 20.4558 110.612 21.0803C110.264 21.7049 109.778 22.1963 109.153 22.5546C108.529 22.9027 107.828 23.0768 107.049 23.0768ZM107.049 22.1093C107.623 22.1093 108.135 21.9813 108.585 21.7253C109.046 21.4591 109.404 21.0855 109.66 20.6043C109.916 20.1231 110.044 19.5753 110.044 18.961C110.044 18.3467 109.916 17.799 109.66 17.3178C109.404 16.8366 109.046 16.468 108.585 16.2121C108.135 15.9459 107.623 15.8128 107.049 15.8128C106.476 15.8128 105.959 15.9459 105.498 16.2121C105.048 16.468 104.689 16.8366 104.423 17.3178C104.167 17.799 104.039 18.3467 104.039 18.961C104.039 19.5753 104.167 20.1231 104.423 20.6043C104.689 21.0855 105.048 21.4591 105.498 21.7253C105.959 21.9813 106.476 22.1093 107.049 22.1093ZM117.952 14.8606C118.966 14.8606 119.77 15.1575 120.363 15.7513C120.968 16.3349 121.27 17.1898 121.27 18.316V23H120.179V18.4235C120.179 17.584 119.969 16.9441 119.55 16.5038C119.13 16.0636 118.531 15.8435 117.753 15.8435C116.883 15.8435 116.191 16.1046 115.68 16.6267C115.178 17.1386 114.927 17.8502 114.927 18.7614V23H113.837V11.6049H114.927V16.3349C115.224 15.864 115.633 15.5005 116.156 15.2445C116.678 14.9886 117.277 14.8606 117.952 14.8606ZM128.806 14.8606C129.82 14.8606 130.624 15.1575 131.217 15.7513C131.821 16.3349 132.124 17.1898 132.124 18.316V23H131.033V18.4235C131.033 17.584 130.823 16.9441 130.403 16.5038C129.984 16.0636 129.385 15.8435 128.607 15.8435C127.736 15.8435 127.045 16.1046 126.533 16.6267C126.032 17.1386 125.781 17.8502 125.781 18.7614V23H124.691V14.922H125.735V16.4117C126.032 15.9203 126.441 15.5415 126.963 15.2753C127.496 14.9988 128.11 14.8606 128.806 14.8606Z" fill="#1B1B1E"/>
<rect x="16" y="56" width="184" height="235" rx="17.2853" fill="#2F4858"/>
<rect x="210" y="56" width="184" height="95" rx="17.2853" fill="#2F4858"/>
<rect x="210" y="167" width="103" height="124" rx="17.2853" fill="#2F4858"/>
<rect x="316" y="167" width="83" height="61" rx="17.2853" fill="#2F4858"/>
<rect x="316" y="230" width="83" height="61" rx="17.2853" fill="#2F4858"/>
<defs>
<filter id="filter0_d" x="296.086" y="1.54294" width="108.828" height="41.8283" filterUnits="userSpaceOnUse" color-interpolation-filters="sRGB">
<feFlood flood-opacity="0" result="BackgroundImageFix"/>
<feColorMatrix in="SourceAlpha" type="matrix" values="0 0 0 0 0 0 0 0 0 0 0 0 0 0 0 0 0 0 127 0"/>
<feOffset dy="3.45706"/>
<feGaussianBlur stdDeviation="3.45706"/>
<feColorMatrix type="matrix" values="0 0 0 0 0 0 0 0 0 0 0 0 0 0 0 0 0 0 0.25 0"/>
<feBlend mode="normal" in2="BackgroundImageFix" result="effect1_dropShadow"/>
<feBlend mode="normal" in="SourceGraphic" in2="effect1_dropShadow" result="shape"/>
</filter>
<filter id="filter1_d" x="48.3991" y="0.271452" width="100.488" height="42.349" filterUnits="userSpaceOnUse" color-interpolation-filters="sRGB">
<feFlood flood-opacity="0" result="BackgroundImageFix"/>
<feColorMatrix in="SourceAlpha" type="matrix" values="0 0 0 0 0 0 0 0 0 0 0 0 0 0 0 0 0 0 127 0"/>
<feOffset dy="3.45706"/>
<feGaussianBlur stdDeviation="3.45706"/>
<feColorMatrix type="matrix" values="0 0 0 0 0 0 0 0 0 0 0 0 0 0 0 0 0 0 0.25 0"/>
<feBlend mode="normal" in2="BackgroundImageFix" result="effect1_dropShadow"/>
<feBlend mode="normal" in="SourceGraphic" in2="effect1_dropShadow" result="shape"/>
</filter>
</defs>
</svg>
