<svg width="130" height="34" viewBox="0 0 130 34" fill="none" xmlns="http://www.w3.org/2000/svg">
<path d="M0 15.75C0 7.05152 7.05152 0 15.75 0H114.25C122.948 0 130 7.05152 130 15.75V18.25C130 26.9485 122.948 34 114.25 34H15.75C7.05151 34 0 26.9485 0 18.25V15.75Z" fill="#2F4858"/>
<path d="M39.2188 22.0971C38.5712 22.0971 37.9883 21.9861 37.4702 21.7641C36.9521 21.5328 36.545 21.209 36.249 20.7927C35.9529 20.3763 35.8049 19.8906 35.8049 19.3355H37.498C37.535 19.7518 37.6969 20.0941 37.9837 20.3624C38.2797 20.6307 38.6914 20.7649 39.2188 20.7649C39.7646 20.7649 40.1902 20.6354 40.4955 20.3763C40.8008 20.108 40.9535 19.7657 40.9535 19.3494C40.9535 19.0256 40.8563 18.7619 40.662 18.5584C40.477 18.3548 40.2411 18.1976 39.9543 18.0865C39.6767 17.9755 39.2882 17.8552 38.7886 17.7257C38.1595 17.5592 37.646 17.3927 37.2482 17.2261C36.8596 17.0503 36.5265 16.782 36.249 16.4212C35.9714 16.0604 35.8327 15.5793 35.8327 14.978C35.8327 14.4229 35.9714 13.9371 36.249 13.5208C36.5265 13.1045 36.9151 12.7853 37.4147 12.5633C37.9143 12.3412 38.4925 12.2302 39.1494 12.2302C40.0838 12.2302 40.8471 12.4661 41.4392 12.938C42.0405 13.4005 42.3736 14.0389 42.4384 14.8531H40.6898C40.662 14.5015 40.4955 14.2008 40.1902 13.951C39.8849 13.7012 39.4824 13.5763 38.9829 13.5763C38.5295 13.5763 38.1595 13.692 37.8727 13.9233C37.5859 14.1546 37.4424 14.4876 37.4424 14.9224C37.4424 15.2185 37.5303 15.4637 37.7061 15.658C37.8912 15.843 38.1224 15.991 38.4 16.102C38.6776 16.2131 39.0569 16.3333 39.538 16.4629C40.1763 16.6386 40.6944 16.8144 41.0922 16.9902C41.4993 17.166 41.8416 17.4389 42.1192 17.809C42.406 18.1698 42.5494 18.6555 42.5494 19.2661C42.5494 19.7565 42.4152 20.219 42.1469 20.6539C41.8879 21.0887 41.5039 21.4403 40.9951 21.7086C40.4955 21.9676 39.9034 22.0971 39.2188 22.0971ZM45.221 13.3404C44.9342 13.3404 44.6937 13.2433 44.4994 13.049C44.3051 12.8547 44.208 12.6141 44.208 12.3273C44.208 12.0405 44.3051 11.8 44.4994 11.6057C44.6937 11.4114 44.9342 11.3143 45.221 11.3143C45.4986 11.3143 45.7345 11.4114 45.9288 11.6057C46.1231 11.8 46.2202 12.0405 46.2202 12.3273C46.2202 12.6141 46.1231 12.8547 45.9288 13.049C45.7345 13.2433 45.4986 13.3404 45.221 13.3404ZM45.9982 14.3535V22H44.4161V14.3535H45.9982ZM51.1561 14.2286C51.7482 14.2286 52.2709 14.3488 52.7242 14.5894C53.1868 14.8207 53.5476 15.1121 53.8067 15.4637V14.3535H55.4026V22.1249C55.4026 22.828 55.2546 23.4525 54.9585 23.9984C54.6625 24.5535 54.2323 24.9883 53.6679 25.3029C53.1128 25.6174 52.4467 25.7747 51.6695 25.7747C50.6333 25.7747 49.7729 25.5295 49.0883 25.0392C48.4037 24.5581 48.0151 23.9012 47.9226 23.0686H49.4908C49.611 23.4664 49.8655 23.7856 50.254 24.0261C50.6519 24.2759 51.1237 24.4008 51.6695 24.4008C52.3079 24.4008 52.8214 24.2065 53.2099 23.818C53.6078 23.4294 53.8067 22.865 53.8067 22.1249V20.8482C53.5384 21.209 53.1729 21.5143 52.7104 21.7641C52.257 22.0046 51.7389 22.1249 51.1561 22.1249C50.4899 22.1249 49.8793 21.9584 49.3242 21.6253C48.7784 21.283 48.3436 20.8112 48.0197 20.2098C47.7052 19.5992 47.5479 18.9099 47.5479 18.142C47.5479 17.3741 47.7052 16.6941 48.0197 16.102C48.3436 15.5099 48.7784 15.052 49.3242 14.7282C49.8793 14.3951 50.4899 14.2286 51.1561 14.2286ZM53.8067 18.1698C53.8067 17.6424 53.6957 17.1845 53.4736 16.7959C53.2608 16.4073 52.9787 16.1113 52.6271 15.9078C52.2755 15.7042 51.8962 15.6024 51.4891 15.6024C51.0821 15.6024 50.7027 15.7042 50.3512 15.9078C49.9996 16.102 49.7128 16.3935 49.4908 16.782C49.278 17.1614 49.1716 17.6147 49.1716 18.142C49.1716 18.6694 49.278 19.132 49.4908 19.5298C49.7128 19.9276 49.9996 20.2329 50.3512 20.4457C50.712 20.6493 51.0913 20.751 51.4891 20.751C51.8962 20.751 52.2755 20.6493 52.6271 20.4457C52.9787 20.2422 53.2608 19.9461 53.4736 19.5576C53.6957 19.1597 53.8067 18.6971 53.8067 18.1698ZM61.3385 14.2286C61.9399 14.2286 62.4765 14.3535 62.9483 14.6033C63.4294 14.8531 63.8041 15.2231 64.0724 15.7135C64.3407 16.2038 64.4748 16.7959 64.4748 17.4898V22H62.9067V17.7257C62.9067 17.0411 62.7355 16.5184 62.3932 16.1576C62.0509 15.7875 61.5837 15.6024 60.9916 15.6024C60.3995 15.6024 59.9276 15.7875 59.5761 16.1576C59.2337 16.5184 59.0626 17.0411 59.0626 17.7257V22H57.4805V14.3535H59.0626V15.2278C59.3216 14.9132 59.6501 14.668 60.0479 14.4922C60.455 14.3165 60.8852 14.2286 61.3385 14.2286ZM74.4969 22.0971C73.5995 22.0971 72.7715 21.889 72.0128 21.4727C71.2634 21.0471 70.6667 20.4596 70.2226 19.7102C69.7878 18.9516 69.5704 18.1004 69.5704 17.1567C69.5704 16.2131 69.7878 15.3665 70.2226 14.6171C70.6667 13.8678 71.2634 13.2849 72.0128 12.8686C72.7715 12.443 73.5995 12.2302 74.4969 12.2302C75.4036 12.2302 76.2316 12.443 76.981 12.8686C77.7396 13.2849 78.3364 13.8678 78.7712 14.6171C79.206 15.3665 79.4235 16.2131 79.4235 17.1567C79.4235 18.1004 79.206 18.9516 78.7712 19.7102C78.3364 20.4596 77.7396 21.0471 76.981 21.4727C76.2316 21.889 75.4036 22.0971 74.4969 22.0971ZM74.4969 20.7233C75.1353 20.7233 75.7043 20.5799 76.2039 20.2931C76.7035 19.997 77.092 19.5807 77.3696 19.0441C77.6564 18.4982 77.7998 17.8691 77.7998 17.1567C77.7998 16.4444 77.6564 15.8199 77.3696 15.2833C77.092 14.7467 76.7035 14.335 76.2039 14.0482C75.7043 13.7614 75.1353 13.618 74.4969 13.618C73.8586 13.618 73.2896 13.7614 72.79 14.0482C72.2904 14.335 71.8972 14.7467 71.6104 15.2833C71.3328 15.8199 71.1941 16.4444 71.1941 17.1567C71.1941 17.8691 71.3328 18.4982 71.6104 19.0441C71.8972 19.5807 72.2904 19.997 72.79 20.2931C73.2896 20.5799 73.8586 20.7233 74.4969 20.7233ZM87.9051 14.3535V22H86.3231V21.098C86.0733 21.4125 85.7449 21.6623 85.3378 21.8473C84.94 22.0231 84.5144 22.111 84.061 22.111C83.4597 22.111 82.9185 21.9861 82.4374 21.7363C81.9655 21.4865 81.5908 21.1165 81.3133 20.6261C81.045 20.1358 80.9108 19.5437 80.9108 18.8498V14.3535H82.479V18.6139C82.479 19.2985 82.6502 19.8259 82.9925 20.1959C83.3348 20.5567 83.802 20.7371 84.3941 20.7371C84.9862 20.7371 85.4534 20.5567 85.7957 20.1959C86.1473 19.8259 86.3231 19.2985 86.3231 18.6139V14.3535H87.9051ZM91.8382 15.6441V19.8767C91.8382 20.1635 91.903 20.3717 92.0325 20.5012C92.1713 20.6215 92.4026 20.6816 92.7264 20.6816H93.6978V22H92.4488C91.7365 22 91.1906 21.8335 90.8113 21.5004C90.432 21.1673 90.2423 20.6261 90.2423 19.8767V15.6441H89.3403V14.3535H90.2423V12.4522H91.8382V14.3535H93.6978V15.6441H91.8382Z" fill="#FAFAFA"/>
</svg>
