<svg width="65" height="66" viewBox="0 0 65 66" fill="none" xmlns="http://www.w3.org/2000/svg">
<ellipse opacity="0.1" cx="32.5" cy="32.6909" rx="32.5" ry="32.6909" fill="#FAFAFA"/>
<path d="M19.375 16.775C19.375 17.2859 18.9609 17.7 18.45 17.7H14.675C14.1641 17.7 13.75 17.2859 13.75 16.775V16.775C13.75 16.2641 14.1641 15.85 14.675 15.85H18.45C18.9609 15.85 19.375 16.2641 19.375 16.775V16.775ZM34.375 28.8C31.2737 28.8 28.75 31.2901 28.75 34.35C28.75 37.4099 31.2737 39.9 34.375 39.9C37.4763 39.9 40 37.4099 40 34.35C40 31.2901 37.4763 28.8 34.375 28.8ZM53 19.55C54.1046 19.55 55 20.4454 55 21.55V49C55 50.1046 54.1046 51 53 51H12C10.8954 51 10 50.1046 10 49V21.55C10 20.4454 10.8954 19.55 12 19.55H21.1187C22.3731 19.55 23.5431 18.9321 24.2387 17.9017L26.2802 14.8803C26.6521 14.3298 27.2731 14 27.9374 14H40.8126C41.4769 14 42.0979 14.3298 42.4698 14.8803L44.5113 17.9017C45.2069 18.9321 46.3769 19.55 47.6312 19.55H53ZM19.375 26.95C19.375 25.9288 18.5369 25.1 17.5 25.1C16.4631 25.1 15.625 25.9288 15.625 26.95C15.625 27.9712 16.4631 28.8 17.5 28.8C18.5369 28.8 19.375 27.9712 19.375 26.95ZM43.75 34.35C43.75 29.2422 39.5519 25.1 34.375 25.1C29.1981 25.1 25 29.2422 25 34.35C25 39.4579 29.1981 43.6 34.375 43.6C39.5519 43.6 43.75 39.4579 43.75 34.35Z" fill="#FAFAFA"/>
</svg>
