<svg width="30" height="30" viewBox="0 0 30 30" fill="none" xmlns="http://www.w3.org/2000/svg">
<path d="M15 0C6.71625 0 0 6.71625 0 15C0 23.2837 6.71625 30 15 30C23.2837 30 30 23.2837 30 15C30 6.71625 23.2837 0 15 0ZM14.1338 20.9054C13.7486 21.298 13.1187 21.3058 12.7239 20.9229L8.54127 16.8667C8.14057 16.4782 8.13557 15.8368 8.53015 15.442L9.44521 14.5264C9.82838 14.143 10.4472 14.1347 10.8406 14.5077L12.7221 16.2917C13.1189 16.6679 13.7441 16.6557 14.1259 16.2644L19.7842 10.4647C20.1733 10.0659 20.8132 10.0619 21.2071 10.4559L22.112 11.3608C22.5 11.7487 22.5029 12.3767 22.1187 12.7683L14.1338 20.9054Z" fill="#27AE60"/>
</svg>
