<svg width="65" height="66" viewBox="0 0 65 66" fill="none" xmlns="http://www.w3.org/2000/svg">
<ellipse opacity="0.1" cx="32.5" cy="32.6909" rx="32.5" ry="32.6909" fill="#FAFAFA"/>
<path d="M45.5 30.75H36.5V46.5H27.5V30.75H18.5L32 17.25L45.5 30.75ZM9.5 33C9.5 20.5935 19.5935 10.5 32 10.5C44.4065 10.5 54.5 20.5935 54.5 33C54.5 45.4065 44.4065 55.5 32 55.5C19.5935 55.5 9.5 45.4065 9.5 33ZM5 33C5 47.9107 17.0893 60 32 60C46.9107 60 59 47.9107 59 33C59 18.0893 46.9107 6 32 6C17.0893 6 5 18.0893 5 33Z" fill="#FAFAFA"/>
</svg>
