<svg width="283" height="49" viewBox="0 0 283 49" fill="none" xmlns="http://www.w3.org/2000/svg">
<rect x="160" width="123" height="49" rx="18" fill="#F56920"/>
<rect x="0.5" y="0.5" width="122" height="48" rx="17.5" stroke="#F56920"/>
<path d="M211.826 17.8913L206.826 27.5217V33H204.348V27.5217L199.326 17.8913H202.087L205.587 25.3043L209.087 17.8913H211.826ZM224.771 26.7174C224.771 27.1667 224.742 27.5725 224.684 27.9348H215.532C215.604 28.8913 215.959 29.6594 216.597 30.2391C217.235 30.8188 218.017 31.1087 218.945 31.1087C220.278 31.1087 221.22 30.5507 221.771 29.4348H224.445C224.083 30.5362 223.423 31.442 222.467 32.1522C221.525 32.8478 220.351 33.1957 218.945 33.1957C217.8 33.1957 216.771 32.942 215.858 32.4348C214.959 31.913 214.249 31.1884 213.728 30.2609C213.22 29.3188 212.967 28.2319 212.967 27C212.967 25.7681 213.213 24.6884 213.706 23.7609C214.213 22.8188 214.916 22.0942 215.815 21.587C216.728 21.0797 217.771 20.8261 218.945 20.8261C220.075 20.8261 221.083 21.0725 221.967 21.5652C222.851 22.058 223.539 22.7536 224.032 23.6522C224.525 24.5362 224.771 25.558 224.771 26.7174ZM222.184 25.9348C222.17 25.0217 221.844 24.2899 221.206 23.7391C220.568 23.1884 219.778 22.913 218.836 22.913C217.981 22.913 217.249 23.1884 216.641 23.7391C216.032 24.2754 215.67 25.0072 215.554 25.9348H222.184ZM231.558 33.1957C230.616 33.1957 229.768 33.029 229.014 32.6957C228.275 32.3478 227.688 31.8841 227.253 31.3043C226.819 30.7101 226.587 30.0507 226.558 29.3261H229.123C229.166 29.8333 229.406 30.2609 229.84 30.6087C230.29 30.942 230.848 31.1087 231.514 31.1087C232.21 31.1087 232.746 30.9783 233.123 30.7174C233.514 30.442 233.71 30.0942 233.71 29.6739C233.71 29.2246 233.493 28.8913 233.058 28.6739C232.637 28.4565 231.964 28.2174 231.036 27.9565C230.137 27.7101 229.406 27.471 228.84 27.2391C228.275 27.0072 227.782 26.6522 227.362 26.1739C226.956 25.6957 226.753 25.0652 226.753 24.2826C226.753 23.6449 226.942 23.0652 227.319 22.5435C227.695 22.0072 228.232 21.587 228.927 21.2826C229.637 20.9783 230.449 20.8261 231.362 20.8261C232.724 20.8261 233.819 21.1739 234.645 21.8696C235.485 22.5507 235.935 23.4855 235.993 24.6739H233.514C233.471 24.1377 233.253 23.7101 232.862 23.3913C232.471 23.0725 231.942 22.913 231.275 22.913C230.623 22.913 230.123 23.0362 229.775 23.2826C229.427 23.529 229.253 23.8551 229.253 24.2609C229.253 24.5797 229.369 24.8478 229.601 25.0652C229.833 25.2826 230.116 25.4565 230.449 25.587C230.782 25.7029 231.275 25.8551 231.927 26.0435C232.797 26.2754 233.507 26.5145 234.058 26.7609C234.623 26.9928 235.108 27.3406 235.514 27.8043C235.92 28.2681 236.13 28.8841 236.145 29.6522C236.145 30.3333 235.956 30.942 235.579 31.4783C235.203 32.0145 234.666 32.4348 233.971 32.7391C233.29 33.0435 232.485 33.1957 231.558 33.1957ZM241.931 17.8913L241.649 28.4348H239.583L239.301 17.8913H241.931ZM240.692 33.1522C240.243 33.1522 239.866 33 239.562 32.6957C239.257 32.3913 239.105 32.0145 239.105 31.5652C239.105 31.1159 239.257 30.7391 239.562 30.4348C239.866 30.1304 240.243 29.9783 240.692 29.9783C241.127 29.9783 241.496 30.1304 241.801 30.4348C242.105 30.7391 242.257 31.1159 242.257 31.5652C242.257 32.0145 242.105 32.3913 241.801 32.6957C241.496 33 241.127 33.1522 240.692 33.1522Z" fill="#FAFAFA"/>
<path d="M23.8043 25.413C23.8043 23.9348 24.1449 22.6087 24.8261 21.4348C25.5217 20.2609 26.4565 19.3478 27.6304 18.6957C28.8188 18.029 30.1159 17.6957 31.5217 17.6957C33.1304 17.6957 34.558 18.0942 35.8043 18.8913C37.0652 19.6739 37.9783 20.7899 38.5435 22.2391H35.5652C35.1739 21.442 34.6304 20.8478 33.9348 20.4565C33.2391 20.0652 32.4348 19.8696 31.5217 19.8696C30.5217 19.8696 29.6304 20.0942 28.8478 20.5435C28.0652 20.9928 27.4493 21.6377 27 22.4783C26.5652 23.3188 26.3478 24.2971 26.3478 25.413C26.3478 26.529 26.5652 27.5072 27 28.3478C27.4493 29.1884 28.0652 29.8406 28.8478 30.3043C29.6304 30.7536 30.5217 30.9783 31.5217 30.9783C32.4348 30.9783 33.2391 30.7826 33.9348 30.3913C34.6304 30 35.1739 29.4058 35.5652 28.6087H38.5435C37.9783 30.058 37.0652 31.1739 35.8043 31.9565C34.558 32.7391 33.1304 33.1304 31.5217 33.1304C30.1014 33.1304 28.8043 32.8043 27.6304 32.1522C26.4565 31.4855 25.5217 30.5652 24.8261 29.3913C24.1449 28.2174 23.8043 26.8913 23.8043 25.413ZM40.6182 26.9565C40.6182 25.7536 40.8646 24.6884 41.3573 23.7609C41.8646 22.8333 42.5457 22.1159 43.4008 21.6087C44.2704 21.087 45.2269 20.8261 46.2704 20.8261C47.2124 20.8261 48.0312 21.0145 48.7269 21.3913C49.437 21.7536 50.0023 22.2101 50.4226 22.7609V21.0217H52.9226V33H50.4226V31.2174C50.0023 31.7826 49.4298 32.2536 48.7052 32.6304C47.9805 33.0072 47.1544 33.1957 46.2269 33.1957C45.1979 33.1957 44.2559 32.9348 43.4008 32.413C42.5457 31.8768 41.8646 31.1377 41.3573 30.1957C40.8646 29.2391 40.6182 28.1594 40.6182 26.9565ZM50.4226 27C50.4226 26.1739 50.2486 25.4565 49.9008 24.8478C49.5675 24.2391 49.1255 23.7754 48.5747 23.4565C48.024 23.1377 47.4298 22.9783 46.7921 22.9783C46.1544 22.9783 45.5602 23.1377 45.0095 23.4565C44.4588 23.7609 44.0095 24.2174 43.6617 24.8261C43.3284 25.4203 43.1617 26.1304 43.1617 26.9565C43.1617 27.7826 43.3284 28.5072 43.6617 29.1304C44.0095 29.7536 44.4588 30.2319 45.0095 30.5652C45.5747 30.8841 46.1689 31.0435 46.7921 31.0435C47.4298 31.0435 48.024 30.8841 48.5747 30.5652C49.1255 30.2464 49.5675 29.7826 49.9008 29.1739C50.2486 28.5507 50.4226 27.8261 50.4226 27ZM62.2211 20.8261C63.1632 20.8261 64.0037 21.0217 64.7429 21.413C65.4965 21.8043 66.0834 22.3841 66.5037 23.1522C66.924 23.9203 67.1342 24.8478 67.1342 25.9348V33H64.6776V26.3043C64.6776 25.2319 64.4095 24.413 63.8733 23.8478C63.3371 23.2681 62.6052 22.9783 61.6776 22.9783C60.7501 22.9783 60.011 23.2681 59.4603 23.8478C58.924 24.413 58.6559 25.2319 58.6559 26.3043V33H56.1776V21.0217H58.6559V22.3913C59.0617 21.8986 59.5762 21.5145 60.1994 21.2391C60.8371 20.9638 61.511 20.8261 62.2211 20.8261ZM69.4693 27C69.4693 25.7681 69.7156 24.6884 70.2084 23.7609C70.7156 22.8188 71.4113 22.0942 72.2953 21.587C73.1794 21.0797 74.1939 20.8261 75.3388 20.8261C76.7881 20.8261 77.9838 21.1739 78.9258 21.8696C79.8823 22.5507 80.5272 23.529 80.8606 24.8043H78.1866C77.9693 24.2101 77.6214 23.7464 77.1432 23.413C76.6649 23.0797 76.0635 22.913 75.3388 22.913C74.3243 22.913 73.5127 23.2754 72.904 24C72.3098 24.7101 72.0127 25.7101 72.0127 27C72.0127 28.2899 72.3098 29.2971 72.904 30.0217C73.5127 30.7464 74.3243 31.1087 75.3388 31.1087C76.7736 31.1087 77.7229 30.4783 78.1866 29.2174H80.8606C80.5127 30.4348 79.8606 31.4058 78.904 32.1304C77.9475 32.8406 76.7591 33.1957 75.3388 33.1957C74.1939 33.1957 73.1794 32.942 72.2953 32.4348C71.4113 31.913 70.7156 31.1884 70.2084 30.2609C69.7156 29.3188 69.4693 28.2319 69.4693 27ZM94.3086 26.7174C94.3086 27.1667 94.2796 27.5725 94.2216 27.9348H85.0695C85.1419 28.8913 85.497 29.6594 86.1347 30.2391C86.7724 30.8188 87.555 31.1087 88.4825 31.1087C89.8158 31.1087 90.7579 30.5507 91.3086 29.4348H93.9825C93.6202 30.5362 92.9608 31.442 92.0042 32.1522C91.0622 32.8478 89.8883 33.1957 88.4825 33.1957C87.3376 33.1957 86.3086 32.942 85.3955 32.4348C84.497 31.913 83.7869 31.1884 83.2651 30.2609C82.7579 29.3188 82.5042 28.2319 82.5042 27C82.5042 25.7681 82.7506 24.6884 83.2434 23.7609C83.7506 22.8188 84.4535 22.0942 85.3521 21.587C86.2651 21.0797 87.3086 20.8261 88.4825 20.8261C89.6129 20.8261 90.6202 21.0725 91.5042 21.5652C92.3883 22.058 93.0767 22.7536 93.5695 23.6522C94.0622 24.5362 94.3086 25.558 94.3086 26.7174ZM91.7216 25.9348C91.7071 25.0217 91.3811 24.2899 90.7434 23.7391C90.1057 23.1884 89.3158 22.913 88.3738 22.913C87.5187 22.913 86.7869 23.1884 86.1782 23.7391C85.5695 24.2754 85.2071 25.0072 85.0912 25.9348H91.7216ZM99.2257 16.913V33H96.7475V16.913H99.2257Z" fill="#F56920"/>
</svg>
