<svg width="298" height="95" viewBox="0 0 298 95" fill="none" xmlns="http://www.w3.org/2000/svg">
<path d="M217.205 24.0711C214.967 29.3985 200.652 37.9581 200.652 37.9581C200.652 37.9581 196.011 21.3518 198.249 16.0244C198.769 14.7455 199.534 13.582 200.5 12.6013C201.465 11.6206 202.612 10.8421 203.874 10.311C205.135 9.77988 206.487 9.50662 207.85 9.50708C209.213 9.50754 210.56 9.7817 211.814 10.3136C213.068 10.8456 214.203 11.6249 215.154 12.6062C216.106 13.5876 216.854 14.7516 217.355 16.0308C217.857 17.3101 218.102 18.6791 218.077 20.0587C218.052 21.4383 217.756 22.801 217.208 24.0679L217.205 24.0711Z" fill="url(#paint0_linear)"/>
<path d="M216.534 23.9825C214.436 28.9797 201.006 37.0101 201.006 37.0101C201.006 37.0101 196.653 21.433 198.752 16.4358C199.757 14.0421 201.658 12.144 204.036 11.1591C206.414 10.1743 209.075 10.1833 211.433 11.1842C213.791 12.1852 215.652 14.096 216.609 16.4964C217.565 18.8968 217.538 21.5901 216.532 23.9839L216.534 23.9825Z" fill="#F56920"/>
<path d="M212.392 21.3711C213.441 18.8725 212.301 16.002 209.846 14.9597C207.391 13.9174 204.549 15.098 203.5 17.5967C202.451 20.0954 203.59 22.9659 206.046 24.0081C208.501 25.0504 211.343 23.8698 212.392 21.3711Z" fill="white"/>
<path d="M42.9745 53.6617H46.3601V71.7635C44.2413 73.7902 41.6618 75.3332 38.6218 76.3926C35.6279 77.452 32.4497 77.9817 29.0873 77.9817C24.297 77.9817 19.9673 76.9223 16.0982 74.8035C12.2752 72.6847 9.25823 69.7599 7.04732 66.029C4.88247 62.2981 3.80005 58.1066 3.80005 53.4544C3.80005 48.8023 4.88247 44.6108 7.04732 40.8799C9.25823 37.149 12.2752 34.2241 16.0982 32.1053C19.9673 29.9866 24.3201 28.9272 29.1565 28.9272C32.7031 28.9272 35.9504 29.5029 38.8983 30.6544C41.8922 31.7599 44.4485 33.395 46.5673 35.5599L44.3564 37.909C42.3297 35.8823 40.0497 34.4314 37.5164 33.5563C35.0291 32.635 32.2655 32.1744 29.2255 32.1744C25.08 32.1744 21.3261 33.0956 17.9636 34.9381C14.6473 36.7805 12.0448 39.3369 10.1564 42.6072C8.26793 45.8314 7.32369 49.4472 7.32369 53.4544C7.32369 57.4156 8.26793 61.0315 10.1564 64.3018C12.0909 67.526 14.7164 70.0823 18.0327 71.9708C21.3491 73.8132 25.08 74.7344 29.2255 74.7344C34.7527 74.7344 39.3358 73.2605 42.9745 70.3126V53.6617ZM93.303 60.4326H62.2812C62.3734 63.2423 63.0872 65.7526 64.423 67.9635C65.7587 70.1284 67.5551 71.8096 69.812 73.0072C72.1151 74.2047 74.6945 74.8035 77.5502 74.8035C79.8993 74.8035 82.0642 74.389 84.0448 73.5599C86.0714 72.6847 87.7526 71.4181 89.0884 69.7599L91.092 72.0399C89.526 73.9284 87.5454 75.3793 85.1502 76.3926C82.8011 77.4059 80.2448 77.9126 77.4811 77.9126C73.8884 77.9126 70.6872 77.1296 67.8775 75.5635C65.0678 73.9975 62.857 71.8326 61.2449 69.069C59.6788 66.3053 58.8957 63.1502 58.8957 59.6035C58.8957 56.1029 59.6327 52.9708 61.1067 50.2072C62.6267 47.3975 64.6993 45.2096 67.3248 43.6435C69.9502 42.0775 72.8981 41.2944 76.1684 41.2944C79.4387 41.2944 82.3636 42.0775 84.943 43.6435C87.5684 45.1635 89.6181 47.3053 91.092 50.069C92.612 52.8326 93.372 55.9647 93.372 59.4653L93.303 60.4326ZM76.1684 44.3344C73.6351 44.3344 71.3551 44.9102 69.3284 46.0617C67.3017 47.1672 65.6666 48.7563 64.423 50.829C63.2254 52.8556 62.5346 55.1587 62.3503 57.7381H89.9866C89.8484 55.1587 89.1575 52.8556 87.9139 50.829C86.6702 48.8023 85.0351 47.2132 83.0084 46.0617C80.9817 44.9102 78.7017 44.3344 76.1684 44.3344ZM120.226 77.9126C116.818 77.9126 113.732 77.1296 110.968 75.5635C108.251 73.9975 106.109 71.8326 104.543 69.069C102.977 66.2593 102.194 63.1041 102.194 59.6035C102.194 56.1029 102.977 52.9708 104.543 50.2072C106.109 47.3975 108.251 45.2096 110.968 43.6435C113.732 42.0775 116.818 41.2944 120.226 41.2944C123.635 41.2944 126.698 42.0775 129.415 43.6435C132.179 45.2096 134.344 47.3975 135.91 50.2072C137.476 52.9708 138.259 56.1029 138.259 59.6035C138.259 63.1041 137.476 66.2593 135.91 69.069C134.344 71.8326 132.179 73.9975 129.415 75.5635C126.698 77.1296 123.635 77.9126 120.226 77.9126ZM120.226 74.8035C122.99 74.8035 125.454 74.1587 127.619 72.869C129.83 71.5793 131.557 69.7829 132.801 67.4799C134.091 65.1769 134.735 62.5514 134.735 59.6035C134.735 56.6556 134.091 54.0302 132.801 51.7272C131.557 49.4241 129.83 47.6278 127.619 46.3381C125.454 45.0484 122.99 44.4035 120.226 44.4035C117.463 44.4035 114.975 45.0484 112.764 46.3381C110.6 47.6278 108.872 49.4241 107.583 51.7272C106.339 54.0302 105.717 56.6556 105.717 59.6035C105.717 62.5514 106.339 65.1769 107.583 67.4799C108.872 69.7829 110.6 71.5793 112.764 72.869C114.975 74.1587 117.463 74.8035 120.226 74.8035ZM296.064 70.4508C296.341 70.8193 296.571 71.2799 296.755 71.8326C296.939 72.3393 297.032 72.8229 297.032 73.2835C297.032 74.5272 296.548 75.5635 295.581 76.3926C294.659 77.2217 293.577 77.6363 292.333 77.6363C291.735 77.6363 291.159 77.4981 290.606 77.2217C290.053 76.9453 289.593 76.5538 289.224 76.0472L274.232 56.2872L267.668 62.5744V73.4217C267.668 74.6653 267.253 75.6787 266.424 76.4617C265.641 77.2447 264.605 77.6363 263.315 77.6363C262.072 77.6363 261.035 77.2447 260.206 76.4617C259.423 75.6326 259.032 74.6193 259.032 73.4217V33.4872C259.032 32.2896 259.446 31.2993 260.275 30.5163C261.104 29.6872 262.164 29.2726 263.453 29.2726C264.697 29.2726 265.71 29.6641 266.493 30.4472C267.276 31.2302 267.668 32.2435 267.668 33.4872V52.2799L289.777 30.5163C290.836 29.4569 291.965 28.9272 293.162 28.9272C294.222 28.9272 295.12 29.3647 295.857 30.2399C296.594 31.115 296.962 32.0363 296.962 33.0035C296.962 33.9708 296.548 34.869 295.719 35.6981L280.657 50.069L296.064 70.4508Z" fill="#FAFAFA"/>
<path d="M169.496 29.2726C175.576 29.2726 180.343 30.7236 183.798 33.6254C187.253 36.4812 188.98 40.4654 188.98 45.5782C188.98 50.6448 187.253 54.629 183.798 57.5308C180.343 60.3866 175.576 61.8144 169.496 61.8144H155.678V77.6363H152.154V29.2726H169.496ZM169.496 58.6363C174.655 58.6363 178.593 57.5079 181.311 55.2509C184.028 52.9939 185.387 49.7697 185.387 45.5782C185.387 41.3867 184.028 38.1623 181.311 35.9053C178.593 33.6023 174.655 32.4509 169.496 32.4509H155.678V58.6363H169.496ZM200.689 41.5709H204.144V77.6363H200.689V41.5709ZM202.416 32.7963C201.633 32.7963 200.965 32.543 200.413 32.0364C199.86 31.4836 199.584 30.8156 199.584 30.0326C199.584 29.2497 199.86 28.5818 200.413 28.0291C200.965 27.4764 201.633 27.2 202.416 27.2C203.199 27.2 203.867 27.4764 204.42 28.0291C204.973 28.5357 205.249 29.1806 205.249 29.9636C205.249 30.7467 204.973 31.4145 204.42 31.9673C203.867 32.52 203.199 32.7963 202.416 32.7963ZM235.079 77.9126C231.578 77.9126 228.446 77.1296 225.682 75.5635C222.919 73.9975 220.754 71.8326 219.188 69.069C217.622 66.2593 216.839 63.1042 216.839 59.6035C216.839 56.0569 217.622 52.9017 219.188 50.1381C220.754 47.3284 222.919 45.1636 225.682 43.6436C228.446 42.0776 231.578 41.2944 235.079 41.2944C237.98 41.2944 240.606 41.8703 242.955 43.0218C245.35 44.1273 247.285 45.7623 248.759 47.9272L246.202 49.7927C244.913 47.9964 243.3 46.6606 241.366 45.7854C239.477 44.8642 237.382 44.4035 235.079 44.4035C232.269 44.4035 229.736 45.0484 227.479 46.3382C225.268 47.5818 223.517 49.355 222.228 51.6581C220.984 53.9611 220.362 56.6096 220.362 59.6035C220.362 62.5975 220.984 65.246 222.228 67.5491C223.517 69.8521 225.268 71.6485 227.479 72.9382C229.736 74.1818 232.269 74.8035 235.079 74.8035C237.382 74.8035 239.477 74.3659 241.366 73.4908C243.3 72.5696 244.913 71.2108 246.202 69.4144L248.759 71.2799C247.285 73.4447 245.35 75.103 242.955 76.2545C240.606 77.36 237.98 77.9126 235.079 77.9126Z" fill="#F56920"/>
<defs>
<linearGradient id="paint0_linear" x1="9350.03" y1="11575.1" x2="11156.4" y2="7319.63" gradientUnits="userSpaceOnUse">
<stop stop-color="#808080" stop-opacity="0.25"/>
<stop offset="0.54" stop-color="#808080" stop-opacity="0.12"/>
<stop offset="1" stop-color="#808080" stop-opacity="0.1"/>
</linearGradient>
</defs>
</svg>
